<svg width="22" height="22" viewBox="0 0 22 22" fill="none" xmlns="http://www.w3.org/2000/svg">
<path d="M15.1263 5.50002V16.0417C15.1263 18.0675 13.4855 19.7084 11.4596 19.7084C9.4338 19.7084 7.79297 18.0675 7.79297 16.0417V4.58335C7.79297 3.97557 8.03441 3.39267 8.46418 2.9629C8.89395 2.53313 9.47685 2.29169 10.0846 2.29169C10.6924 2.29169 11.2753 2.53313 11.7051 2.9629C12.1349 3.39267 12.3763 3.97557 12.3763 4.58335V14.2084C12.3763 14.7125 11.9638 15.125 11.4596 15.125C10.9555 15.125 10.543 14.7125 10.543 14.2084V5.50002H9.16797V14.2084C9.16797 14.8161 9.40941 15.399 9.83918 15.8288C10.269 16.2586 10.8518 16.5 11.4596 16.5C12.0674 16.5 12.6503 16.2586 13.0801 15.8288C13.5099 15.399 13.7513 14.8161 13.7513 14.2084V4.58335C13.7513 2.55752 12.1105 0.916687 10.0846 0.916687C8.0588 0.916687 6.41797 2.55752 6.41797 4.58335V16.0417C6.41797 18.8284 8.67297 21.0834 11.4596 21.0834C14.2463 21.0834 16.5013 18.8284 16.5013 16.0417V5.50002H15.1263Z" fill="#393939"/>
</svg>
