<svg width="280" height="197" viewBox="0 0 280 197" fill="none" xmlns="http://www.w3.org/2000/svg">
<g clip-path="url(#clip0_2238_19861)">
<path d="M170.427 20.7071C169.108 20.7309 167.79 20.6414 166.489 20.3909C160.916 19.3409 155.402 17.1216 149.792 15.8927C138.118 13.3333 124.843 11.9314 114.355 18.8815C95.0748 30.2285 79.7443 33.8497 56.7546 33.7304C33.7649 33.6111 5.23749 84.052 19.2854 116.124C33.3334 148.196 40.3034 144.856 62.7897 146.526C85.282 148.196 87.2238 168.916 114.355 172.298C141.48 175.681 146.448 150.261 177.816 154.091C209.184 157.921 276.458 144.498 273.047 122.454C269.643 100.41 227.062 97.1708 236.429 78.0743C242.147 66.4111 249.788 54.6406 251.58 41.5456C253.767 25.5632 241.817 18.1597 227.392 15.6421C213.398 13.1961 198.864 13.8702 185.164 17.5989C180.471 18.8756 175.419 20.6116 170.427 20.7071Z" fill="#EBF7EB"/>
<path d="M171.806 16.758C170.416 16.7819 169.031 16.6864 167.659 16.4239C161.792 15.3143 155.984 12.9757 150.081 11.6811C137.789 8.98456 123.813 7.50504 112.768 14.8311C92.4628 26.7925 76.3232 30.6106 52.1109 30.4853C27.8986 30.3601 -2.1391 83.5512 12.658 117.371C27.4551 151.192 34.7907 147.672 58.4696 149.432C82.1486 151.192 84.1982 173.038 112.768 176.606C141.337 180.173 146.563 153.369 179.591 157.408C212.619 161.447 283.458 147.29 279.875 124.047C276.291 100.804 231.45 97.3859 241.315 77.2513C247.338 64.9558 255.387 52.5409 257.268 38.7361C259.57 21.8826 246.99 14.0794 231.798 11.4186C217.066 8.84138 201.76 9.55132 187.328 13.4828C182.39 14.8311 177.068 16.6626 171.806 16.758Z" fill="#EBF7EB"/>
<path d="M116.081 48.7824C116.081 48.7824 120.06 29.5427 122.332 26.7149C124.603 23.893 125.742 15.1949 128.013 17.8497C130.285 20.5045 125.172 32.1676 125.172 32.1676C125.172 32.1676 153.017 23.2845 156.427 28.3972C159.837 33.5099 129.404 43.616 129.404 43.616L125.172 59.5328L116.081 48.7884V48.7824Z" fill="#FFB9B9"/>
<path d="M61.5256 104.784C62.3466 103.382 66.404 101.842 67.7525 100.948C73.1043 97.3979 78.1925 93.4307 82.9571 89.1293C99.624 74.0657 108.847 57.9818 113.846 36.5706C116.603 37.2387 140.797 49.6357 141.66 48.2158C141.6 48.3113 100.661 115.808 75.7353 119.495C50.8038 123.182 61.5196 104.796 61.5256 104.79V104.784Z" fill="#393939"/>
<path d="M146.228 142.952L132.989 147.844L139.605 161.077L153.042 155.761L160.617 142.947H146.222L146.228 142.952Z" fill="#FFB9B9"/>
<path d="M234.087 59.5267C234.087 59.5267 260.265 50.1723 251.928 29.805C243.592 9.43773 222.376 17.3544 223.515 18.6788C224.654 19.9972 234.087 59.5326 234.087 59.5326V59.5267Z" fill="#393939"/>
<path d="M216.701 18.6729C216.701 18.6729 200.789 26.7864 200.789 31.6843C200.789 36.5822 206.548 36.6538 206.548 36.6538L226.553 30.1749L216.701 18.6729Z" fill="#393939"/>
<path d="M113.976 146.526C113.976 146.526 136.972 141.998 141.107 143.132C145.237 144.265 146.369 146.526 146.369 146.526C146.369 146.526 136.163 151.615 136.163 151.621C140.346 156.865 161.808 179.028 143.073 179.207C134.88 179.284 128.995 168.474 123.757 163.529C119.55 159.561 115.343 155.588 111.136 151.615L113.976 146.52V146.526Z" fill="#FFB9B9"/>
<path d="M85.2109 36.2063C83.4849 45.5727 78.6125 57.8264 73.1587 69.591C63.9652 89.4154 53.1056 107.838 52.8359 108.631C52.2666 110.332 28.4018 130.693 25.5551 131.826C22.7143 132.96 -8.54593 120.509 2.25373 103.542C13.0534 86.5697 17.0268 92.792 21.5756 73.606C26.1244 54.414 33.2743 61.3761 42.9352 57.4387C48.2392 55.2731 46.1476 52.4214 45.4464 45.5607C44.871 39.935 44.9489 34.2317 47.2563 27.6812C50.6005 18.1657 64.5645 18.1061 72.7032 19.0427C76.9943 19.5319 80.1167 20.3671 80.1167 20.3671C85.7443 21.5125 86.7931 27.6573 85.2109 36.2123V36.2063Z" fill="#393939"/>
<path d="M84.7497 70.6827C92.5408 66.9839 93.8533 53.5429 87.6863 40.6628C81.5134 27.7826 70.1983 20.3373 62.4072 24.0361C54.6161 27.7349 53.3036 41.1758 59.4766 54.056C65.6435 66.9362 76.9646 74.3815 84.7557 70.6827H84.7497Z" fill="#FFB9B9"/>
<path d="M73.5824 69.8117C73.5824 69.8117 67.6132 82.5845 67.0499 88.5384C66.4805 94.4863 48.8666 88.5384 48.8666 88.5384L66.4865 56.0188L77.2862 61.1315L73.5944 69.8117H73.5824Z" fill="#FFB9B9"/>
<path d="M68.233 65.6775C69.941 62.283 67.2321 57.4864 62.1799 54.9629C57.1277 52.4453 51.6499 53.1553 49.9359 56.5558C48.2279 59.9503 50.9368 64.7468 55.989 67.2704C61.0412 69.7879 66.5189 69.078 68.233 65.6775Z" fill="#FFB9B9"/>
<path d="M48.8629 80.3416L69.8868 91.1814C69.8868 91.1814 83.5272 109.759 82.9579 119.943C82.3885 130.126 70.4562 178.777 70.4562 193.483C70.4562 193.483 47.7242 191.222 31.243 195.744C31.243 195.744 13.1617 121.392 48.8629 80.3416Z" fill="#49B348"/>
<path d="M69.083 109.192C69.083 109.192 83.2928 134.648 129.89 143.138C129.89 143.138 113.408 157.283 112.839 173.122C112.839 173.122 64.5162 144.271 57.9897 127.865C51.4631 111.459 54.9392 104.825 69.077 109.198L69.083 109.192Z" fill="#49B348"/>
<path d="M73.4999 24.8893C73.0624 33.319 70.6531 50.6378 58.3432 51.4909C54.7413 51.7414 51.1874 49.8204 47.8252 46.6765C47.2499 41.0507 46.5547 34.4525 48.862 27.9021C52.2062 18.3866 64.5641 18.0943 72.7028 19.0309C73.2601 19.8721 73.5838 20.3553 73.5838 20.3553C73.5838 20.3553 73.6437 22.157 73.5059 24.8893H73.4999Z" fill="#393939"/>
<path d="M240.45 42.9003C242.092 28.7255 235.757 16.3584 226.3 15.2666C216.843 14.1809 207.841 24.7881 206.199 38.9628C204.557 53.1376 210.891 65.5047 220.349 66.5964C229.806 67.6822 238.808 57.075 240.45 42.9003Z" fill="#FFB9B9"/>
<path d="M241.774 34.2137C241.774 34.2137 246.791 23.511 244.789 19.7764C242.787 16.0418 235.619 -5.28 221.08 1.22273C206.547 7.72547 217.958 12.7188 217.958 12.7188C217.958 12.7188 205.36 8.38767 202.094 16.6622C198.827 24.9368 222.123 23.2306 222.123 23.2306C222.123 23.2306 210.897 22.7631 214.984 29.1167C219.078 35.4643 240.833 37.4292 240.833 37.4292L241.78 34.2137H241.774Z" fill="#393939"/>
<path d="M153.053 155.767C153.101 155.737 153.156 155.702 153.21 155.672C153.138 155.737 153.077 155.761 153.053 155.767Z" fill="#3F3D56"/>
<path d="M268.6 182.923C268.6 182.923 178.853 212.89 184.87 182.923C185.247 181.038 198.51 131.629 195.478 115.038C195.478 115.038 160.436 151.036 153.214 155.66C153.759 155.194 154.922 152.892 146.226 142.952C146.226 142.952 165.548 128.611 173.507 109.759C176.887 101.753 180.567 92.953 186.308 86.2892C188.933 83.2407 191.876 81.093 195.04 79.6015C200.212 77.1615 205.972 76.4874 211.923 76.5291C213.505 76.5411 215.099 76.6007 216.705 76.6962C219.576 76.8692 222.471 77.1317 225.336 77.3882C226.792 77.5195 228.248 77.6746 229.699 77.8655C231.299 78.0743 232.893 78.3308 234.475 78.641C237.07 79.1481 239.635 79.7984 242.14 80.6515C245.652 81.8506 253.821 84.6784 255.349 88.5383C255.349 88.5383 276.187 141.216 268.612 182.929L268.6 182.923Z" fill="#3F3D56"/>
<path d="M119.329 167.085C119.472 165.963 125.388 152.021 125.388 152.021C125.388 152.021 139.142 147.636 140.221 156.418C141.3 165.199 130.877 177.268 130.877 177.268C130.877 177.268 118.442 173.981 119.323 167.085H119.329Z" fill="#FFB9B9"/>
<path d="M248.07 47.8994C251.073 43.4967 251.013 38.2468 247.944 36.1766C244.876 34.1005 239.949 35.9857 236.947 40.3885C233.944 44.7912 234.004 50.0412 237.073 52.1173C240.147 54.1934 245.067 52.3082 248.07 47.9054V47.8994Z" fill="#FFB9B9"/>
<path d="M221.148 86.188C217.678 86.188 214.867 83.39 214.867 79.9358V58.8467H227.435V79.9358C227.435 83.39 224.624 86.188 221.154 86.188H221.148Z" fill="#FFB9B9"/>
<path d="M82.5676 123.421C82.5676 123.421 69.0351 111.459 65.625 106.365" stroke="#393939" stroke-width="0.797721" stroke-miterlimit="10" stroke-linecap="round"/>
<path d="M77.7084 148.984C77.7084 148.984 54.8266 129.363 51.9858 119.985" stroke="#393939" stroke-width="0.797721" stroke-miterlimit="10" stroke-linecap="round"/>
<path d="M131.933 38.7538L135.283 36.636C135.714 36.3616 135.888 35.8187 135.696 35.3414L134.486 32.4062C135.043 31.7202 135.511 30.9565 135.858 30.1332L139.005 29.7753C139.532 29.7156 139.934 29.2801 139.946 28.7492L140.035 24.7998C140.047 24.2868 139.688 23.8393 139.184 23.7379L135.96 23.0936C135.666 22.3538 135.283 21.6558 134.821 21.0235L136.014 17.4917C136.182 16.9906 135.954 16.4477 135.481 16.2091L131.921 14.4551C131.459 14.2284 130.902 14.3597 130.596 14.7713L128.744 17.265C128.313 17.1934 127.869 17.1517 127.42 17.1397C127.144 17.1338 126.874 17.1397 126.611 17.1576L124.663 14.6341C124.339 14.2165 123.758 14.0972 123.297 14.3597L119.844 16.3164C119.401 16.567 119.197 17.1099 119.371 17.5872L120.294 20.1465C119.599 20.8982 119.023 21.7632 118.604 22.7118L115.499 23.189C114.99 23.2666 114.612 23.6961 114.6 24.2032L114.511 28.1526C114.499 28.6776 114.876 29.137 115.404 29.2205L118.376 29.6977C118.742 30.7 119.281 31.6247 119.952 32.4361L118.975 35.234C118.802 35.7351 119.023 36.284 119.497 36.5226L123.033 38.3183C123.488 38.551 124.052 38.4198 124.357 38.0141L126.059 35.7709C126.365 35.8067 126.671 35.8306 126.988 35.8366C127.408 35.8485 127.821 35.8246 128.229 35.7829L130.566 38.5271C130.908 38.9328 131.501 39.0223 131.945 38.7359L131.933 38.7538ZM122.266 26.3867C122.332 23.6782 124.591 21.5246 127.318 21.5902C130.039 21.6558 132.202 23.9049 132.136 26.6194C132.071 29.3279 129.805 31.4815 127.084 31.4159C124.363 31.3503 122.2 29.1012 122.266 26.3867Z" fill="#393939"/>
<path d="M132.863 139.463C132.863 139.463 125.629 142.589 124.605 143.269C123.58 143.949 132.468 153.662 132.468 153.662" stroke="#393939" stroke-width="0.797721" stroke-miterlimit="10" stroke-linecap="round"/>
<path d="M113.121 155.129C113.121 155.129 118.119 152.898 121.589 155.731C125.059 158.565 123.722 166.691 123.722 166.691" stroke="#393939" stroke-width="0.797721" stroke-miterlimit="10" stroke-linecap="round"/>
<path d="M217.779 43.8743V46.4384" stroke="#393939" stroke-width="0.797721" stroke-linecap="round"/>
<path d="M208.056 36.7336C208.796 35.8559 211.082 34.4513 214.3 35.8541" stroke="#393939" stroke-width="0.797721" stroke-linecap="round"/>
<path d="M228.069 37.2471C227.309 36.3859 224.993 35.0317 221.807 36.5047" stroke="#393939" stroke-width="0.797721" stroke-linecap="round"/>
<circle cx="211.397" cy="39.8857" r="1.59544" fill="#393939"/>
<circle cx="224.16" cy="39.8857" r="1.59544" fill="#393939"/>
<path d="M213.79 53.447C215.134 54.651 218.61 56.3365 221.767 53.447" stroke="#393939" stroke-width="0.797721" stroke-linecap="round"/>
<path d="M86.1527 59.6694C87.6418 59.6694 90.7688 59.2227 91.3644 57.4358" stroke="#393939" stroke-width="0.797721" stroke-linecap="round"/>
<path d="M88.228 45.6296C89.7171 47.1187 91.2061 48.6078 89.7171 48.6078" stroke="#393939" stroke-width="0.797721" stroke-linecap="round"/>
<path d="M73.7758 43.8747C74.2561 41.8676 76.4148 37.8341 81.2079 37.7569" stroke="#393939" stroke-width="0.797721" stroke-linecap="round"/>
<path d="M81.5588 44.4281C81.5588 45.2046 80.9585 45.806 80.252 45.806C79.5454 45.806 78.9452 45.2046 78.9452 44.4281C78.9452 43.6516 79.5454 43.0502 80.252 43.0502C80.9585 43.0502 81.5588 43.6516 81.5588 44.4281Z" fill="#393939" stroke="#393939" stroke-width="0.797721"/>
</g>
<defs>
<clipPath id="clip0_2238_19861">
<rect width="280" height="196.239" fill="white"/>
</clipPath>
</defs>
</svg>
