<?xml version="1.0" encoding="UTF-8"?> <svg xmlns="http://www.w3.org/2000/svg" width="2034" height="2045" viewBox="0 0 2034 2045" fill="none"><path d="M2033.5 1022.5C2033.5 1586.94 1578.39 2044.5 1017 2044.5C455.605 2044.5 0.5 1586.94 0.5 1022.5C0.5 458.062 455.605 0.5 1017 0.5C1578.39 0.5 2033.5 458.062 2033.5 1022.5ZM1954.5 1022.5C1954.5 1538.89 1537.9 1957.5 1024 1957.5C510.101 1957.5 93.5 1538.89 93.5 1022.5C93.5 506.112 510.101 87.5 1024 87.5C1537.9 87.5 1954.5 506.112 1954.5 1022.5ZM1024 1958.5C1538.46 1958.5 1955.5 1539.44 1955.5 1022.5C1955.5 505.564 1538.46 86.5 1024 86.5C509.544 86.5 92.5 505.564 92.5 1022.5C92.5 1539.44 509.544 1958.5 1024 1958.5ZM1867.5 1021.5C1867.5 1489.84 1489.63 1869.5 1023.5 1869.5C557.374 1869.5 179.5 1489.84 179.5 1021.5C179.5 553.16 557.374 173.5 1023.5 173.5C1489.63 173.5 1867.5 553.16 1867.5 1021.5ZM1023.5 1870.5C1490.18 1870.5 1868.5 1490.39 1868.5 1021.5C1868.5 552.612 1490.18 172.5 1023.5 172.5C556.817 172.5 178.5 552.612 178.5 1021.5C178.5 1490.39 556.817 1870.5 1023.5 1870.5ZM1787.5 1021.5C1787.5 1445.1 1445.44 1788.5 1023.5 1788.5C601.556 1788.5 259.5 1445.1 259.5 1021.5C259.5 597.896 601.556 254.5 1023.5 254.5C1445.44 254.5 1787.5 597.896 1787.5 1021.5ZM1023.5 1789.5C1446 1789.5 1788.5 1445.65 1788.5 1021.5C1788.5 597.347 1446 253.5 1023.5 253.5C601 253.5 258.5 597.347 258.5 1021.5C258.5 1445.65 601 1789.5 1023.5 1789.5ZM1707.5 1022.5C1707.5 1405.24 1398.57 1715.5 1017.5 1715.5C636.426 1715.5 327.5 1405.24 327.5 1022.5C327.5 639.765 636.426 329.5 1017.5 329.5C1398.57 329.5 1707.5 639.765 1707.5 1022.5ZM1017.5 1716.5C1399.13 1716.5 1708.5 1405.78 1708.5 1022.5C1708.5 639.216 1399.13 328.5 1017.5 328.5C635.869 328.5 326.5 639.216 326.5 1022.5C326.5 1405.78 635.869 1716.5 1017.5 1716.5ZM1632.5 1022.5C1632.5 1359.95 1359.84 1633.5 1023.5 1633.5C687.16 1633.5 414.5 1359.95 414.5 1022.5C414.5 685.052 687.16 411.5 1023.5 411.5C1359.84 411.5 1632.5 685.052 1632.5 1022.5ZM1023.5 1634.5C1360.4 1634.5 1633.5 1360.5 1633.5 1022.5C1633.5 684.503 1360.4 410.5 1023.5 410.5C686.605 410.5 413.5 684.503 413.5 1022.5C413.5 1360.5 686.605 1634.5 1023.5 1634.5ZM1551.5 1021.5C1551.5 1313.66 1315.33 1550.5 1024 1550.5C732.671 1550.5 496.5 1313.66 496.5 1021.5C496.5 729.34 732.671 492.5 1024 492.5C1315.33 492.5 1551.5 729.34 1551.5 1021.5ZM1024 1551.5C1315.88 1551.5 1552.5 1314.21 1552.5 1021.5C1552.5 728.79 1315.88 491.5 1024 491.5C732.116 491.5 495.5 728.79 495.5 1021.5C495.5 1314.21 732.116 1551.5 1024 1551.5ZM1470.5 1021.5C1470.5 1268.37 1270.59 1468.5 1024 1468.5C777.405 1468.5 577.5 1268.37 577.5 1021.5C577.5 774.628 777.405 574.5 1024 574.5C1270.59 574.5 1470.5 774.628 1470.5 1021.5ZM1024 1469.5C1271.15 1469.5 1471.5 1268.92 1471.5 1021.5C1471.5 774.077 1271.15 573.5 1024 573.5C776.852 573.5 576.5 774.077 576.5 1021.5C576.5 1268.92 776.852 1469.5 1024 1469.5ZM1387.5 1022C1387.5 1223.31 1224.53 1386.5 1023.5 1386.5C822.469 1386.5 659.5 1223.31 659.5 1022C659.5 820.692 822.469 657.5 1023.5 657.5C1224.53 657.5 1387.5 820.692 1387.5 1022ZM1023.5 1387.5C1225.08 1387.5 1388.5 1223.86 1388.5 1022C1388.5 820.141 1225.08 656.5 1023.5 656.5C821.915 656.5 658.5 820.141 658.5 1022C658.5 1223.86 821.915 1387.5 1023.5 1387.5ZM1313.5 1023C1313.5 1182.89 1183.89 1312.5 1024 1312.5C864.114 1312.5 734.5 1182.89 734.5 1023C734.5 863.114 864.114 733.5 1024 733.5C1183.89 733.5 1313.5 863.114 1313.5 1023ZM1024 1313.5C1184.44 1313.5 1314.5 1183.44 1314.5 1023C1314.5 862.561 1184.44 732.5 1024 732.5C863.561 732.5 733.5 862.561 733.5 1023C733.5 1183.44 863.561 1313.5 1024 1313.5ZM1241.5 1023C1241.5 1143.12 1144.12 1240.5 1024 1240.5C903.878 1240.5 806.5 1143.12 806.5 1023C806.5 902.878 903.878 805.5 1024 805.5C1144.12 805.5 1241.5 902.878 1241.5 1023ZM1024 1241.5C1144.67 1241.5 1242.5 1143.67 1242.5 1023C1242.5 902.326 1144.67 804.5 1024 804.5C903.326 804.5 805.5 902.326 805.5 1023C805.5 1143.67 903.326 1241.5 1024 1241.5ZM1172.5 1023.5C1172.5 1105.24 1106.24 1171.5 1024.5 1171.5C942.762 1171.5 876.5 1105.24 876.5 1023.5C876.5 941.762 942.762 875.5 1024.5 875.5C1106.24 875.5 1172.5 941.762 1172.5 1023.5ZM1024.5 1172.5C1106.79 1172.5 1173.5 1105.79 1173.5 1023.5C1173.5 941.21 1106.79 874.5 1024.5 874.5C942.21 874.5 875.5 941.21 875.5 1023.5C875.5 1105.79 942.21 1172.5 1024.5 1172.5ZM1102.5 1023C1102.5 1066.35 1067.35 1101.5 1024 1101.5C980.646 1101.5 945.5 1066.35 945.5 1023C945.5 979.646 980.646 944.5 1024 944.5C1067.35 944.5 1102.5 979.646 1102.5 1023ZM1024 1102.5C1067.91 1102.5 1103.5 1066.91 1103.5 1023C1103.5 979.093 1067.91 943.5 1024 943.5C980.093 943.5 944.5 979.093 944.5 1023C944.5 1066.91 980.093 1102.5 1024 1102.5Z" stroke="#F5F5F5"></path></svg> 