<svg width="136.000000" height="136.000000" viewBox="0 0 136 136" fill="none" xmlns="http://www.w3.org/2000/svg" xmlns:xlink="http://www.w3.org/1999/xlink">
	<desc>
			Created with Pixso.
	</desc>
	<defs>
		<clipPath id="clip2862_34885">
			<rect rx="0.000000" width="39.000000" height="39.000000" transform="translate(77.500000 78.900391)" fill="white" fill-opacity="0"/>
		</clipPath>
		<linearGradient x1="22.836926" y1="85.960648" x2="37.203068" y2="110.840645" id="paint_linear_2862_34897_0" gradientUnits="userSpaceOnUse">
			<stop stop-color="#2368C4"/>
			<stop offset="0.500000" stop-color="#1A5DBE"/>
			<stop offset="1.000000" stop-color="#1146AC"/>
		</linearGradient>
		<linearGradient x1="50.836922" y1="25.960400" x2="65.203064" y2="50.840389" id="paint_linear_2862_34881_0" gradientUnits="userSpaceOnUse">
			<stop stop-color="#18884F"/>
			<stop offset="0.500000" stop-color="#117E43"/>
			<stop offset="1.000000" stop-color="#0B6631"/>
		</linearGradient>
	</defs>
	<rect rx="6.795987" width="136.000000" height="136.000000" fill="#FAFAFA" fill-opacity="1.000000"/>
	<path d="M60.24 78.4L30.85 78.4C30.61 78.39 30.37 78.44 30.15 78.53C29.92 78.63 29.72 78.76 29.55 78.93C29.38 79.1 29.25 79.3 29.16 79.53C29.06 79.75 29.01 79.99 29.01 80.23L29.01 88.4L46.04 93.4L62.07 88.4L62.07 80.23C62.07 79.99 62.03 79.75 61.93 79.53C61.84 79.3 61.71 79.1 61.53 78.93C61.37 78.76 61.16 78.62 60.94 78.53C60.72 78.44 60.48 78.39 60.24 78.4Z" fill="#41A5EE" fill-opacity="1.000000" fill-rule="nonzero"/>
	<path d="M62.07 88.39L29.01 88.39L29.01 98.39L46.04 101.4L62.07 98.39L62.07 88.39Z" fill="#2B7CD3" fill-opacity="1.000000" fill-rule="nonzero"/>
	<path d="M29.01 98.4L29.01 108.4L45.04 110.4L62.07 108.4L62.07 98.4L29.01 98.4Z" fill="#185ABD" fill-opacity="1.000000" fill-rule="nonzero"/>
	<path d="M30.85 118.4L60.23 118.4C60.48 118.4 60.71 118.35 60.94 118.26C61.16 118.17 61.36 118.03 61.53 117.86C61.71 117.69 61.84 117.49 61.93 117.27C62.03 117.04 62.07 116.8 62.07 116.56L62.07 108.4L29.01 108.4L29.01 116.56C29.01 116.8 29.06 117.04 29.16 117.27C29.25 117.49 29.38 117.69 29.55 117.86C29.72 118.03 29.92 118.17 30.15 118.26C30.37 118.35 30.61 118.4 30.85 118.4Z" fill="#103F91" fill-opacity="1.000000" fill-rule="nonzero"/>
	<g opacity="0.100000">
		<path d="M41.2 86.4L29.01 86.4L29.01 111.4L41.2 111.4C41.69 111.39 42.15 111.2 42.5 110.86C42.84 110.51 43.03 110.05 43.04 109.56L43.04 88.23C43.03 87.74 42.84 87.28 42.5 86.93C42.15 86.59 41.69 86.4 41.2 86.4Z" fill="#000000" fill-opacity="1.000000" fill-rule="nonzero"/>
	</g>
	<g opacity="0.200000">
		<path d="M40.2 87.4L29.01 87.4L29.01 112.4L40.2 112.4C40.69 112.39 41.15 112.2 41.5 111.86C41.84 111.51 42.03 111.05 42.04 110.56L42.04 89.23C42.03 88.74 41.84 88.28 41.5 87.93C41.15 87.59 40.69 87.4 40.2 87.4Z" fill="#000000" fill-opacity="1.000000" fill-rule="nonzero"/>
	</g>
	<g opacity="0.200000">
		<path d="M40.2 87.4L29.01 87.4L29.01 110.4L40.2 110.4C40.69 110.39 41.15 110.2 41.5 109.86C41.84 109.51 42.03 109.05 42.04 108.56L42.04 89.23C42.03 88.74 41.84 88.28 41.5 87.93C41.15 87.59 40.69 87.4 40.2 87.4Z" fill="#000000" fill-opacity="1.000000" fill-rule="nonzero"/>
	</g>
	<g opacity="0.200000">
		<path d="M39.2 87.4L29.01 87.4L29.01 110.4L39.2 110.4C39.69 110.39 40.15 110.2 40.5 109.86C40.84 109.51 41.03 109.05 41.04 108.56L41.04 89.23C41.03 88.74 40.84 88.28 40.5 87.93C40.15 87.59 39.69 87.4 39.2 87.4Z" fill="#000000" fill-opacity="1.000000" fill-rule="nonzero"/>
	</g>
	<path d="M20.83 87.4L39.2 87.4C39.69 87.4 40.15 87.59 40.5 87.93C40.84 88.28 41.03 88.74 41.03 89.23L41.03 107.56C41.03 108.05 40.84 108.52 40.5 108.86C40.15 109.2 39.69 109.4 39.2 109.4L20.83 109.4C20.59 109.4 20.35 109.35 20.13 109.26C19.91 109.17 19.7 109.03 19.53 108.86C19.36 108.69 19.23 108.49 19.14 108.27C19.04 108.04 19 107.8 19 107.56L19 89.23C19 88.99 19.04 88.75 19.14 88.53C19.23 88.3 19.36 88.1 19.53 87.93C19.7 87.76 19.91 87.63 20.13 87.53C20.35 87.44 20.59 87.39 20.83 87.4Z" fill="url(#paint_linear_2862_34897_0)" fill-opacity="1.000000" fill-rule="nonzero"/>
	<path d="M26.53 101.45C26.57 101.74 26.6 101.98 26.6 102.19L26.65 102.19C26.66 101.99 26.7 101.75 26.75 101.47C26.83 101.05 26.84 100.95 26.89 100.76L28.82 92.44L31.32 92.44L33.32 100.63C33.43 101.14 33.51 101.65 33.57 102.17L33.6 102.17C33.64 101.67 33.71 101.16 33.81 100.67L35.41 92.43L37.68 92.43L34.87 104.35L32.21 104.35L30.31 96.46C30.26 96.23 30.19 95.94 30.12 95.57C30.05 95.21 30.01 94.94 30 94.77L29.96 94.77C29.94 94.96 29.9 95.25 29.83 95.63C29.77 96.02 29.72 96.3 29.68 96.48L27.89 104.35L25.19 104.35L22.37 92.44L24.67 92.44L26.41 100.77C26.46 101 26.51 101.23 26.53 101.45Z" fill="#FFFFFF" fill-opacity="1.000000" fill-rule="nonzero"/>
	<path d="M74.04 37.4L57.01 34.4L57.01 56.56C57.01 56.8 57.06 57.04 57.16 57.27C57.25 57.49 57.38 57.69 57.55 57.86C57.72 58.03 57.92 58.17 58.15 58.26C58.37 58.35 58.61 58.4 58.85 58.4L88.23 58.4C88.48 58.4 88.71 58.35 88.94 58.26C89.16 58.17 89.36 58.03 89.53 57.86C89.71 57.69 89.84 57.49 89.93 57.27C90.03 57.04 90.07 56.8 90.07 56.56L90.07 48.4L74.04 37.4Z" fill="#185C37" fill-opacity="1.000000" fill-rule="nonzero"/>
	<path d="M74.04 18.4L58.85 18.4C58.61 18.39 58.37 18.44 58.15 18.53C57.92 18.63 57.72 18.76 57.55 18.93C57.38 19.1 57.25 19.3 57.16 19.53C57.06 19.75 57.01 19.99 57.01 20.23L57.01 28.4L74.04 38.4L83.06 41.4L90.07 38.4L90.07 28.4L74.04 18.4Z" fill="#21A366" fill-opacity="1.000000" fill-rule="nonzero"/>
	<path d="M57.01 28.4L74.04 28.4L74.04 38.4L57.01 38.4L57.01 28.4Z" fill="#107C41" fill-opacity="1.000000" fill-rule="nonzero"/>
	<g opacity="0.100000">
		<path d="M69.2 26.4L57.01 26.4L57.01 51.4L69.2 51.4C69.69 51.39 70.15 51.2 70.5 50.86C70.84 50.51 71.03 50.05 71.04 49.56L71.04 28.23C71.03 27.74 70.84 27.28 70.5 26.93C70.15 26.59 69.69 26.4 69.2 26.4Z" fill="#000000" fill-opacity="1.000000" fill-rule="nonzero"/>
	</g>
	<g opacity="0.200000">
		<path d="M68.2 27.4L57.01 27.4L57.01 52.4L68.2 52.4C68.69 52.39 69.15 52.2 69.5 51.86C69.84 51.51 70.03 51.05 70.04 50.56L70.04 29.23C70.03 28.74 69.84 28.28 69.5 27.93C69.15 27.59 68.69 27.4 68.2 27.4Z" fill="#000000" fill-opacity="1.000000" fill-rule="nonzero"/>
	</g>
	<g opacity="0.200000">
		<path d="M68.2 27.4L57.01 27.4L57.01 50.4L68.2 50.4C68.69 50.39 69.15 50.2 69.5 49.86C69.84 49.51 70.03 49.05 70.04 48.56L70.04 29.23C70.03 28.74 69.84 28.28 69.5 27.93C69.15 27.59 68.69 27.4 68.2 27.4Z" fill="#000000" fill-opacity="1.000000" fill-rule="nonzero"/>
	</g>
	<g opacity="0.200000">
		<path d="M67.2 27.4L57.01 27.4L57.01 50.4L67.2 50.4C67.69 50.39 68.15 50.2 68.5 49.86C68.84 49.51 69.03 49.05 69.04 48.56L69.04 29.23C69.03 28.74 68.84 28.28 68.5 27.93C68.15 27.59 67.69 27.4 67.2 27.4Z" fill="#000000" fill-opacity="1.000000" fill-rule="nonzero"/>
	</g>
	<path d="M48.83 27.4L67.2 27.4C67.69 27.39 68.15 27.59 68.5 27.93C68.84 28.28 69.03 28.74 69.03 29.23L69.03 47.56C69.03 48.05 68.84 48.52 68.5 48.86C68.15 49.2 67.69 49.4 67.2 49.4L48.83 49.4C48.59 49.4 48.35 49.35 48.13 49.26C47.91 49.17 47.7 49.03 47.53 48.86C47.36 48.69 47.23 48.49 47.14 48.27C47.04 48.04 47 47.8 47 47.56L47 29.23C47 28.99 47.04 28.75 47.14 28.53C47.23 28.3 47.36 28.1 47.53 27.93C47.7 27.76 47.91 27.62 48.13 27.53C48.35 27.44 48.59 27.39 48.83 27.4Z" fill="url(#paint_linear_2862_34881_0)" fill-opacity="1.000000" fill-rule="nonzero"/>
	<path d="M52.69 44.35L56.55 38.38L53.01 32.44L55.85 32.44L57.78 36.24C57.96 36.6 58.09 36.87 58.15 37.05L58.17 37.05C58.3 36.76 58.44 36.48 58.58 36.21L60.64 32.44L63.26 32.44L59.63 38.35L63.35 44.36L60.57 44.36L58.33 40.19C58.23 40.01 58.14 39.82 58.07 39.63L58.03 39.63C57.97 39.82 57.88 40 57.78 40.17L55.48 44.35L52.69 44.35Z" fill="#FFFFFF" fill-opacity="1.000000" fill-rule="nonzero"/>
	<path d="M88.23 18.4L74.04 18.4L74.04 28.4L90.07 28.4L90.07 20.23C90.07 19.99 90.02 19.75 89.93 19.53C89.84 19.3 89.7 19.1 89.53 18.93C89.36 18.76 89.16 18.62 88.94 18.53C88.71 18.44 88.48 18.39 88.23 18.4Z" fill="#33C481" fill-opacity="1.000000" fill-rule="nonzero"/>
	<path d="M74.04 38.4L90.07 38.4L90.07 48.4L74.04 48.4L74.04 38.4Z" fill="#107C41" fill-opacity="1.000000" fill-rule="nonzero"/>
	<rect rx="0.000000" width="39.000000" height="39.000000" transform="translate(77.500000 78.900391)" fill="#FFFFFF" fill-opacity="0"/>
	<g clip-path="url(#clip2862_34885)">
		<path d="M101.54 89.61L100.33 89.61L100.33 78.4L85.17 78.4C83.67 78.4 82.45 79.62 82.45 81.12L82.45 115.67C82.45 117.18 83.67 118.4 85.17 118.4L108.81 118.4C110.32 118.4 111.54 117.18 111.54 115.67L111.54 89.61L101.54 89.61ZM100.63 107.03L88.81 107.03L88.81 104.76L100.63 104.76L100.63 107.03L100.63 107.03ZM105.18 101.58L88.81 101.58L88.81 99.3L105.18 99.3L105.18 101.58ZM105.18 96.12L88.81 96.12L88.81 93.85L105.18 93.85L105.18 96.12ZM101.54 88.4L111.54 88.4L101.54 78.4L101.54 88.4Z" fill="#4285F4" fill-opacity="1.000000" fill-rule="nonzero"/>
		<path d="M101.5 88.4L111.5 88.4L101.5 78.4L101.5 88.4Z" fill="#1967D2" fill-opacity="1.000000" fill-rule="evenodd"/>
	</g>
</svg>
