<svg width="136.000000" height="136.000000" viewBox="0 0 136 136" fill="none" xmlns="http://www.w3.org/2000/svg" xmlns:xlink="http://www.w3.org/1999/xlink">
	<desc>
			Created with Pixso.
	</desc>
	<defs>
		<clipPath id="clip2862_34629">
			<rect rx="0.000000" width="39.000000" height="36.241379" transform="translate(48.500000 19.500000)" fill="white" fill-opacity="0"/>
		</clipPath>
	</defs>
	<rect rx="6.795987" width="136.000000" height="136.000000" fill="#FAFAFA" fill-opacity="1.000000"/>
	<rect rx="0.000000" width="39.000000" height="36.241379" transform="translate(48.500000 19.500000)" fill="#FFFFFF" fill-opacity="0"/>
	<g clip-path="url(#clip2862_34629)">
		<path d="M79.3 38.68C74.49 38.68 70.6 42.6 70.6 47.43C70.6 52.26 74.49 56.18 79.3 56.18C84.1 56.18 88 52.26 88 47.43C88 42.6 84.1 38.68 79.3 38.68ZM56.69 38.68C51.89 38.68 48 42.6 48 47.43C48 52.26 51.89 56.18 56.69 56.18C61.5 56.18 65.39 52.26 65.39 47.43C65.39 42.6 61.5 38.68 56.69 38.68ZM76.69 27.74C76.69 32.58 72.8 36.49 68 36.49C63.19 36.49 59.3 32.58 59.3 27.74C59.3 22.91 63.19 19 68 19C72.8 19 76.69 22.91 76.69 27.74Z" fill="#C2C2C2" fill-opacity="1.000000" fill-rule="nonzero"/>
	</g>
	<path d="M36.41 77.68L25.19 83.73C23.92 84.42 22.86 85.43 22.12 86.67C21.39 87.91 21 89.32 21 90.77L21 103.23C21 104.67 21.39 106.09 22.12 107.32C22.86 108.56 23.92 109.58 25.19 110.26M39.76 105.06L37.14 103.61C35.88 102.92 34.83 101.9 34.11 100.67C33.38 99.44 33 98.03 33 96.6L33 92.81" stroke="#C2C2C2" stroke-opacity="1.000000" stroke-width="1.000000" stroke-linejoin="round" stroke-linecap="round"/>
	<path d="M46.33 92.6L46.33 96.74C46.33 98.18 45.94 99.6 45.2 100.83C44.46 102.07 43.4 103.09 42.13 103.78L31.47 109.54C30.41 110.11 29.24 110.44 28.05 110.5C26.85 110.56 25.66 110.34 24.55 109.88C24.75 110.02 24.97 110.14 25.19 110.26L35.85 116.03C37.02 116.66 38.33 117 39.66 117C40.99 117 42.3 116.66 43.46 116.03L54.13 110.26C55.4 109.58 56.46 108.56 57.19 107.32C57.93 106.08 58.32 104.67 58.32 103.23" stroke="#C2C2C2" stroke-opacity="1.000000" stroke-width="1.000000" stroke-linejoin="round" stroke-linecap="round"/>
	<path d="M43.47 77.96C42.39 77.38 41.19 77.05 39.97 77C38.75 76.95 37.53 77.19 36.41 77.68C35.36 78.42 34.5 79.4 33.9 80.54C33.31 81.69 33 82.95 33 84.24L33 92.6L36.05 91.05C37.17 90.49 38.41 90.2 39.66 90.2C40.91 90.2 42.15 90.49 43.27 91.05L53.93 96.44C55.23 97.1 56.32 98.09 57.09 99.32C57.87 100.54 58.29 101.96 58.32 103.41L58.32 103.23L58.32 90.76C58.32 89.32 57.94 87.91 57.2 86.67C56.46 85.43 55.4 84.42 54.13 83.73L43.47 77.96Z" stroke="#C2C2C2" stroke-opacity="1.000000" stroke-width="1.000000" stroke-linejoin="round"/>
	<path d="M116.49 77L79.69 77C78.8 77 78.09 77.71 78.09 78.6L78.09 115.4C78.09 116.28 78.8 117 79.69 117L116.49 117C117.37 117 118.09 116.28 118.09 115.4L118.09 78.6C118.09 77.71 117.37 77 116.49 77ZM98.14 97.3L88.54 105.35C88.28 105.57 87.89 105.39 87.89 105.05L87.89 101.91C87.89 101.8 87.94 101.68 88.03 101.61L93.52 97L88.03 92.38C87.99 92.35 87.95 92.3 87.92 92.25C87.9 92.2 87.89 92.14 87.89 92.08L87.89 88.95C87.89 88.61 88.28 88.42 88.54 88.64L98.14 96.68C98.34 96.85 98.34 97.14 98.14 97.3ZM108.29 105.05C108.29 105.27 108.12 105.45 107.91 105.45L98.66 105.45C98.46 105.45 98.29 105.27 98.29 105.05L98.29 102.65C98.29 102.43 98.46 102.25 98.66 102.25L107.91 102.25C108.12 102.25 108.29 102.43 108.29 102.65L108.29 105.05Z" fill="#C2C2C2" fill-opacity="1.000000" fill-rule="nonzero"/>
</svg>
