<svg width="136.000000" height="136.000000" viewBox="0 0 136 136" fill="none" xmlns="http://www.w3.org/2000/svg" xmlns:xlink="http://www.w3.org/1999/xlink">
	<desc>
			Created with Pixso.
	</desc>
	<defs>
		<clipPath id="clip2862_34623">
			<rect rx="0.000000" width="39.000000" height="39.000000" transform="translate(79.117188 79.047852)" fill="white" fill-opacity="0"/>
		</clipPath>
	</defs>
	<rect rx="6.795987" width="136.000000" height="136.000000" fill="#FAFAFA" fill-opacity="1.000000"/>
	<path d="M89.81 18.4C90.32 18.4 90.76 18.59 91.16 18.97C91.53 19.33 91.71 19.77 91.71 20.29L91.71 56.5C91.71 57.02 91.53 57.46 91.16 57.82C90.76 58.21 90.32 58.4 89.81 58.4L59.32 58.4C58.82 58.4 58.37 58.21 57.97 57.82C57.61 57.46 57.42 57.02 57.42 56.5L57.42 49.82L47.89 49.82C47.39 49.82 46.94 49.64 46.54 49.28C46.18 48.88 46 48.43 46 47.93L46 28.86C46 28.36 46.18 27.91 46.54 27.52C46.94 27.15 47.39 26.97 47.89 26.97L57.42 26.97L57.42 20.29C57.42 19.77 57.61 19.33 57.97 18.97C58.37 18.59 58.82 18.4 59.32 18.4L89.81 18.4ZM57.42 40.82L60.12 45.89L64.21 45.89L59.71 38.53L64.12 31.29L60.21 31.29L57.72 35.88L57.63 36.02L57.56 36.18C57.16 35.37 56.74 34.56 56.28 33.73C55.9 32.92 55.5 32.11 55.07 31.29L50.93 31.29L55.25 38.58L50.57 45.89L54.64 45.89L57.42 40.82ZM73.15 55.54L73.15 49.82L60.28 49.82L60.28 55.54L73.15 55.54ZM73.15 46.97L73.15 39.84L68.85 39.84L68.85 46.97L73.15 46.97ZM73.15 36.98L73.15 29.82L68.85 29.82L68.85 36.98L73.15 36.98ZM73.15 26.97L73.15 21.25L60.28 21.25L60.28 26.97L73.15 26.97ZM88.85 55.54L88.85 49.82L76.01 49.82L76.01 55.54L88.85 55.54ZM88.85 46.97L88.85 39.84L76.01 39.84L76.01 46.97L88.85 46.97ZM88.85 36.98L88.85 29.82L76.01 29.82L76.01 36.98L88.85 36.98ZM88.85 26.97L88.85 21.25L76.01 21.25L76.01 26.97L88.85 26.97Z" fill="#C2C2C2" fill-opacity="1.000000" fill-rule="nonzero"/>
	<path d="M61.81 78.4C62.32 78.4 62.76 78.59 63.16 78.97C63.53 79.33 63.71 79.77 63.71 80.29L63.71 116.5C63.71 117.02 63.53 117.46 63.16 117.82C62.76 118.21 62.32 118.4 61.81 118.4L31.32 118.4C30.82 118.4 30.37 118.21 29.97 117.82C29.61 117.46 29.42 117.02 29.42 116.5L29.42 109.82L19.89 109.82C19.39 109.82 18.94 109.64 18.54 109.28C18.18 108.88 18 108.43 18 107.93L18 88.86C18 88.36 18.18 87.91 18.54 87.52C18.94 87.15 19.39 86.97 19.89 86.97L29.42 86.97L29.42 80.29C29.42 79.77 29.61 79.33 29.97 78.97C30.37 78.59 30.82 78.4 31.32 78.4L61.81 78.4ZM29.49 96.89L32.23 105.89L35.37 105.89L38.36 90.9L35.21 90.9L33.42 99.77L30.89 91.2L28.28 91.2L25.56 99.81L23.78 90.9L20.49 90.9L23.48 105.89L26.61 105.89L29.49 96.89ZM60.85 115.54L60.85 109.82L32.28 109.82L32.28 115.54L60.85 115.54ZM60.85 106.97L60.85 99.84L40.85 99.84L40.85 106.97L60.85 106.97ZM60.85 96.98L60.85 89.82L40.85 89.82L40.85 96.98L60.85 96.98ZM60.85 86.97L60.85 81.25L32.28 81.25L32.28 86.97L60.85 86.97Z" fill="#C2C2C2" fill-opacity="1.000000" fill-rule="nonzero"/>
	<rect rx="0.000000" width="39.000000" height="39.000000" transform="translate(79.117188 79.047852)" fill="#FFFFFF" fill-opacity="0"/>
	<g clip-path="url(#clip2862_34623)">
		<path d="M103.16 89.75L101.94 89.75L101.94 78.54L86.79 78.54C85.28 78.54 84.07 79.76 84.07 81.27L84.07 115.82C84.07 117.32 85.28 118.54 86.79 118.54L110.43 118.54C111.94 118.54 113.16 117.32 113.16 115.82L113.16 89.75L103.16 89.75ZM102.25 107.18L90.43 107.18L90.43 104.91L102.25 104.91L102.25 107.18L102.25 107.18ZM106.79 101.72L90.43 101.72L90.43 99.45L106.79 99.45L106.79 101.72ZM106.79 96.27L90.43 96.27L90.43 94L106.79 94L106.79 96.27ZM103.16 88.54L113.16 88.54L103.16 78.54L103.16 88.54Z" fill="#C2C2C2" fill-opacity="1.000000" fill-rule="nonzero"/>
	</g>
</svg>
