<svg width="136.000000" height="136.000000" viewBox="0 0 136 136" fill="none" xmlns="http://www.w3.org/2000/svg" xmlns:xlink="http://www.w3.org/1999/xlink">
	<desc>
			Created with Pixso.
	</desc>
	<defs>
		<clipPath id="clip2862_34904">
			<rect rx="0.000000" width="36.000000" height="41.000000" transform="translate(21.507812 76.500000)" fill="white" fill-opacity="0"/>
		</clipPath>
		<radialGradient gradientTransform="translate(33.3581 84.4589) rotate(109.945) scale(31.7211 54.0312)" cx="0.000000" cy="0.000000" r="1.000000" id="paint_radial_2862_34905_0" gradientUnits="userSpaceOnUse">
			<stop offset="0.060000" stop-color="#AE7FE2"/>
			<stop offset="1.000000" stop-color="#0078D4"/>
		</radialGradient>
		<linearGradient x1="39.502811" y1="107.107101" x2="35.077217" y2="99.207718" id="paint_linear_2862_34906_0" gradientUnits="userSpaceOnUse">
			<stop stop-color="#114A8B"/>
			<stop offset="1.000000" stop-color="#0078D4" stop-opacity="0.000000"/>
		</linearGradient>
		<radialGradient gradientTransform="translate(26.9688 108.773) rotate(-8.63372) scale(28.7373 19.5577)" cx="0.000000" cy="0.000000" r="1.000000" id="paint_radial_2862_34907_0" gradientUnits="userSpaceOnUse">
			<stop offset="0.130000" stop-color="#D59DFF"/>
			<stop offset="1.000000" stop-color="#5E438F"/>
		</radialGradient>
		<linearGradient x1="50.375599" y1="95.353973" x2="45.633205" y2="102.371635" id="paint_linear_2862_34908_0" gradientUnits="userSpaceOnUse">
			<stop stop-color="#493474"/>
			<stop offset="1.000000" stop-color="#8C66BA" stop-opacity="0.000000"/>
		</linearGradient>
		<radialGradient gradientTransform="translate(55.6042 99.5312) rotate(-165.334) scale(23.1025 39.966)" cx="0.000000" cy="0.000000" r="1.000000" id="paint_radial_2862_34909_0" gradientUnits="userSpaceOnUse">
			<stop offset="0.060000" stop-color="#50E6FF"/>
			<stop offset="1.000000" stop-color="#436DCD"/>
		</radialGradient>
		<linearGradient x1="33.161949" y1="90.093735" x2="40.144531" y2="90.093735" id="paint_linear_2862_34910_0" gradientUnits="userSpaceOnUse">
			<stop stop-color="#2D3F80"/>
			<stop offset="1.000000" stop-color="#436DCD" stop-opacity="0.000000"/>
		</linearGradient>
	</defs>
	<rect rx="6.795987" width="136.000000" height="136.000000" fill="#FAFAFA" fill-opacity="1.000000"/>
	<path d="M79.3 38.57C74.5 38.57 70.6 42.46 70.6 47.27C70.6 52.07 74.5 55.97 79.3 55.97C84.11 55.97 88 52.07 88 47.27C88 42.46 84.11 38.57 79.3 38.57ZM56.7 38.57C51.9 38.57 48 42.46 48 47.27C48 52.07 51.9 55.97 56.7 55.97C61.51 55.97 65.4 52.07 65.4 47.27C65.4 42.46 61.51 38.57 56.7 38.57ZM76.7 27.69C76.7 32.5 72.81 36.39 68 36.39C63.2 36.39 59.3 32.5 59.3 27.69C59.3 22.89 63.2 19 68 19C72.81 19 76.7 22.89 76.7 27.69Z" fill="#F06A6A" fill-opacity="1.000000" fill-rule="nonzero"/>
	<rect rx="0.000000" width="36.000000" height="41.000000" transform="translate(21.507812 76.500000)" fill="#FFFFFF" fill-opacity="0"/>
	<g clip-path="url(#clip2862_34904)">
		<path d="M35.88 76.97L35.67 77.1C35.34 77.31 35.03 77.54 34.74 77.79L35.34 77.36L40.43 77.36L41.35 84.58L36.73 89.36L32.1 92.67L32.1 96.5C32.1 99.17 33.46 101.65 35.67 103.03L40.54 106.07L30.25 112.27L28.27 112.27L24.57 109.96C22.35 108.57 21 106.1 21 103.42L21 90.56C21 87.89 22.36 85.41 24.57 84.03L35.67 77.1C35.74 77.05 35.81 77.01 35.88 76.97Z" fill="url(#paint_radial_2862_34905_0)" fill-opacity="1.000000" fill-rule="nonzero"/>
		<path d="M35.88 76.97L35.67 77.1C35.34 77.31 35.03 77.54 34.74 77.79L35.34 77.36L40.43 77.36L41.35 84.58L36.73 89.36L32.1 92.67L32.1 96.5C32.1 99.17 33.46 101.65 35.67 103.03L40.54 106.07L30.25 112.27L28.27 112.27L24.57 109.96C22.35 108.57 21 106.1 21 103.42L21 90.56C21 87.89 22.36 85.41 24.57 84.03L35.67 77.1C35.74 77.05 35.81 77.01 35.88 76.97Z" fill="url(#paint_linear_2862_34906_0)" fill-opacity="1.000000" fill-rule="nonzero"/>
		<path d="M46.9 92.22L46.9 96.5C46.9 99.17 45.55 101.65 43.33 103.03L32.23 109.96C29.96 111.38 27.14 111.43 24.83 110.12L35.67 116.89C38.03 118.36 40.98 118.36 43.33 116.89L54.43 109.96C56.65 108.57 58 106.1 58 103.42L58 100.34L57.08 98.9L46.9 92.22Z" fill="url(#paint_radial_2862_34907_0)" fill-opacity="1.000000" fill-rule="nonzero"/>
		<path d="M46.9 92.22L46.9 96.5C46.9 99.17 45.55 101.65 43.33 103.03L32.23 109.96C29.96 111.38 27.14 111.43 24.83 110.12L35.67 116.89C38.03 118.36 40.98 118.36 43.33 116.89L54.43 109.96C56.65 108.57 58 106.1 58 103.42L58 100.34L57.08 98.9L46.9 92.22Z" fill="url(#paint_linear_2862_34908_0)" fill-opacity="1.000000" fill-rule="nonzero"/>
		<path d="M54.43 84.03L43.33 77.1C41.05 75.67 38.21 75.63 35.89 76.96L35.67 77.1C33.46 78.49 32.1 80.96 32.1 83.64L32.1 92.69L35.67 90.46C38.03 88.99 40.98 88.99 43.33 90.46L54.43 97.39C56.58 98.73 57.92 101.1 58 103.68C58 103.59 58 103.51 58 103.43L58 90.56C58 87.89 56.65 85.41 54.43 84.03Z" fill="url(#paint_radial_2862_34909_0)" fill-opacity="1.000000" fill-rule="nonzero"/>
		<path d="M54.43 84.03L43.33 77.1C41.05 75.67 38.21 75.63 35.89 76.96L35.67 77.1C33.46 78.49 32.1 80.96 32.1 83.64L32.1 92.69L35.67 90.46C38.03 88.99 40.98 88.99 43.33 90.46L54.43 97.39C56.58 98.73 57.92 101.1 58 103.68C58 103.59 58 103.51 58 103.43L58 90.56C58 87.89 56.65 85.41 54.43 84.03Z" fill="url(#paint_linear_2862_34910_0)" fill-opacity="1.000000" fill-rule="nonzero"/>
	</g>
	<path d="M116.39 77L79.6 77C78.71 77 78 77.71 78 78.6L78 115.4C78 116.28 78.71 117 79.6 117L116.39 117C117.28 117 118 116.28 118 115.4L118 78.6C118 77.71 117.28 77 116.39 77ZM98.05 97.3L88.45 105.35C88.19 105.57 87.8 105.39 87.8 105.05L87.8 101.91C87.8 101.8 87.85 101.68 87.94 101.61L93.43 97L87.94 92.38C87.89 92.35 87.86 92.3 87.83 92.25C87.81 92.2 87.8 92.14 87.8 92.08L87.8 88.95C87.8 88.61 88.19 88.42 88.45 88.64L98.05 96.68C98.25 96.85 98.25 97.14 98.05 97.3ZM108.19 105.05C108.19 105.27 108.03 105.45 107.82 105.45L98.57 105.45C98.37 105.45 98.19 105.27 98.19 105.05L98.19 102.65C98.19 102.43 98.37 102.25 98.57 102.25L107.82 102.25C108.03 102.25 108.19 102.43 108.19 102.65L108.19 105.05Z" fill="#000000" fill-opacity="1.000000" fill-rule="nonzero"/>
</svg>
