<svg width="136" height="136" viewBox="0 0 136 136" fill="none" xmlns="http://www.w3.org/2000/svg">
<rect width="136" height="136" rx="6.79599" fill="#FAFAFA"/>
<path d="M22.343 57.7113C21.4869 57.7021 20.6486 57.4656 19.9139 57.0261C19.1792 56.5865 18.5744 55.9596 18.1616 55.2096C17.7545 54.4627 17.5566 53.6196 17.5889 52.7696C17.6212 51.9195 17.8825 51.0939 18.3451 50.38L27.1611 36.7667C27.6096 36.0369 28.2442 35.4395 28.9997 35.0356C29.7552 34.6318 30.6045 34.436 31.4605 34.4685C32.3166 34.5009 33.1486 34.7604 33.8714 35.2202C34.5942 35.6801 35.1817 36.3238 35.5738 37.0855C35.9625 37.8433 36.1389 38.6921 36.0843 39.542C36.0298 40.3919 35.7462 41.2112 35.2637 41.913L26.4571 55.5172C26.0122 56.2003 25.4015 56.7597 24.6822 57.1433C23.9629 57.5269 23.1581 57.7223 22.343 57.7113Z" fill="#FB275D"/>
<path d="M37.1366 57.57C36.2801 57.5522 35.4438 57.3063 34.714 56.8576C33.9842 56.4088 33.3873 55.7736 32.9849 55.0172C32.5866 54.2656 32.3986 53.4203 32.4409 52.5706C32.4831 51.721 32.754 50.8985 33.225 50.1901L42.195 36.6878C42.6463 35.9509 43.287 35.3484 44.0503 34.9433C44.8136 34.5382 45.6717 34.3452 46.5349 34.3844C47.3982 34.4236 48.2351 34.6936 48.9586 35.1663C49.682 35.639 50.2654 36.297 50.6481 37.0718C51.0262 37.8434 51.187 38.7033 51.1134 39.5593C51.0397 40.4154 50.7343 41.2352 50.2299 41.9307L41.2599 55.4308C40.8089 56.1062 40.1944 56.6566 39.4734 57.0307C38.7525 57.4047 37.9486 57.5902 37.1366 57.57Z" fill="#FFCC00"/>
<path d="M52.6881 57.6153C55.3491 57.6 57.4942 55.5025 57.4794 52.9305C57.4646 50.3585 55.2954 48.2859 52.6345 48.3012C49.9735 48.3166 47.8284 50.414 47.8432 52.986C47.858 55.558 50.0272 57.6306 52.6881 57.6153Z" fill="#00CA72"/>
<path d="M82.343 57.7113C81.4869 57.7021 80.6486 57.4656 79.9139 57.0261C79.1792 56.5865 78.5744 55.9596 78.1616 55.2096C77.7545 54.4627 77.5566 53.6196 77.5889 52.7696C77.6212 51.9195 77.8825 51.0939 78.3451 50.38L87.1611 36.7667C87.6096 36.0369 88.2442 35.4395 88.9997 35.0356C89.7552 34.6318 90.6045 34.436 91.4605 34.4685C92.3166 34.5009 93.1486 34.7604 93.8714 35.2202C94.5942 35.6801 95.1817 36.3238 95.5738 37.0855C95.9625 37.8433 96.1389 38.6921 96.0843 39.542C96.0298 40.3919 95.7462 41.2112 95.2637 41.913L86.4571 55.5172C86.0122 56.2003 85.4015 56.7597 84.6822 57.1433C83.9629 57.5269 83.1581 57.7223 82.343 57.7113Z" fill="#FB275D"/>
<path d="M97.1366 57.57C96.2801 57.5522 95.4438 57.3063 94.714 56.8576C93.9842 56.4088 93.3873 55.7736 92.9849 55.0172C92.5866 54.2656 92.3986 53.4203 92.4409 52.5706C92.4831 51.721 92.754 50.8985 93.225 50.1901L102.195 36.6878C102.646 35.9509 103.287 35.3484 104.05 34.9433C104.814 34.5382 105.672 34.3452 106.535 34.3844C107.398 34.4236 108.235 34.6936 108.959 35.1663C109.682 35.639 110.265 36.297 110.648 37.0718C111.026 37.8434 111.187 38.7033 111.113 39.5593C111.04 40.4154 110.734 41.2352 110.23 41.9307L101.26 55.4308C100.809 56.1062 100.194 56.6566 99.4734 57.0307C98.7525 57.4047 97.9486 57.5902 97.1366 57.57Z" fill="#FFCC00"/>
<path d="M112.688 57.6153C115.349 57.6 117.494 55.5025 117.479 52.9305C117.465 50.3585 115.295 48.2859 112.634 48.3012C109.974 48.3166 107.828 50.414 107.843 52.986C107.858 55.558 110.027 57.6306 112.688 57.6153Z" fill="#00CA72"/>
<path d="M22.343 101.711C21.4869 101.702 20.6486 101.466 19.9139 101.026C19.1792 100.587 18.5744 99.9596 18.1616 99.2096C17.7545 98.4627 17.5566 97.6196 17.5889 96.7696C17.6212 95.9195 17.8825 95.0939 18.3451 94.38L27.1611 80.7667C27.6096 80.0369 28.2442 79.4395 28.9997 79.0356C29.7552 78.6318 30.6045 78.436 31.4605 78.4685C32.3166 78.5009 33.1486 78.7604 33.8714 79.2202C34.5942 79.6801 35.1817 80.3238 35.5738 81.0855C35.9625 81.8433 36.1389 82.6921 36.0843 83.542C36.0298 84.3919 35.7462 85.2112 35.2637 85.913L26.4571 99.5172C26.0122 100.2 25.4015 100.76 24.6822 101.143C23.9629 101.527 23.1581 101.722 22.343 101.711Z" fill="#FB275D"/>
<path d="M37.1366 101.57C36.2801 101.552 35.4438 101.306 34.714 100.858C33.9842 100.409 33.3873 99.7736 32.9849 99.0172C32.5866 98.2656 32.3986 97.4203 32.4409 96.5706C32.4831 95.721 32.754 94.8985 33.225 94.1901L42.195 80.6878C42.6463 79.9509 43.287 79.3484 44.0503 78.9433C44.8136 78.5382 45.6717 78.3452 46.5349 78.3844C47.3982 78.4236 48.2351 78.6936 48.9586 79.1663C49.682 79.639 50.2654 80.297 50.6481 81.0718C51.0262 81.8434 51.187 82.7033 51.1134 83.5593C51.0397 84.4154 50.7343 85.2352 50.2299 85.9307L41.2599 99.4308C40.8089 100.106 40.1944 100.657 39.4734 101.031C38.7525 101.405 37.9486 101.59 37.1366 101.57Z" fill="#FFCC00"/>
<path d="M52.6881 101.615C55.3491 101.6 57.4942 99.5025 57.4794 96.9305C57.4646 94.3585 55.2954 92.2859 52.6345 92.3012C49.9735 92.3166 47.8284 94.414 47.8432 96.986C47.858 99.558 50.0272 101.631 52.6881 101.615Z" fill="#00CA72"/>
<path d="M82.343 101.711C81.4869 101.702 80.6486 101.466 79.9139 101.026C79.1792 100.587 78.5744 99.9596 78.1616 99.2096C77.7545 98.4627 77.5566 97.6196 77.5889 96.7696C77.6212 95.9195 77.8825 95.0939 78.3451 94.38L87.1611 80.7667C87.6096 80.0369 88.2442 79.4395 88.9997 79.0356C89.7552 78.6318 90.6045 78.436 91.4605 78.4685C92.3166 78.5009 93.1486 78.7604 93.8714 79.2202C94.5942 79.6801 95.1817 80.3238 95.5738 81.0855C95.9625 81.8433 96.1389 82.6921 96.0843 83.542C96.0298 84.3919 95.7462 85.2112 95.2637 85.913L86.4571 99.5172C86.0122 100.2 85.4015 100.76 84.6822 101.143C83.9629 101.527 83.1581 101.722 82.343 101.711Z" fill="#FB275D"/>
<path d="M97.1366 101.57C96.2801 101.552 95.4438 101.306 94.714 100.858C93.9842 100.409 93.3873 99.7736 92.9849 99.0172C92.5866 98.2656 92.3986 97.4203 92.4409 96.5706C92.4831 95.721 92.754 94.8985 93.225 94.1901L102.195 80.6878C102.646 79.9509 103.287 79.3484 104.05 78.9433C104.814 78.5382 105.672 78.3452 106.535 78.3844C107.398 78.4236 108.235 78.6936 108.959 79.1663C109.682 79.639 110.265 80.297 110.648 81.0718C111.026 81.8434 111.187 82.7033 111.113 83.5593C111.04 84.4154 110.734 85.2352 110.23 85.9307L101.26 99.4308C100.809 100.106 100.194 100.657 99.4734 101.031C98.7525 101.405 97.9486 101.59 97.1366 101.57Z" fill="#FFCC00"/>
<path d="M112.688 101.615C115.349 101.6 117.494 99.5025 117.479 96.9305C117.465 94.3585 115.295 92.2859 112.634 92.3012C109.974 92.3166 107.828 94.414 107.843 96.986C107.858 99.558 110.027 101.631 112.688 101.615Z" fill="#00CA72"/>
</svg>
