<svg width="136.000000" height="136.000000" viewBox="0 0 136 136" fill="none" xmlns="http://www.w3.org/2000/svg" xmlns:xlink="http://www.w3.org/1999/xlink">
	<desc>
			Created with Pixso.
	</desc>
	<defs>
		<clipPath id="clip2862_34598">
			<rect rx="0.000000" width="39.000000" height="39.000000" transform="translate(79.117188 79.956055)" fill="white" fill-opacity="0"/>
		</clipPath>
		<clipPath id="clip2862_34600">
			<rect rx="0.000000" width="39.000000" height="39.000000" transform="translate(48.117188 19.647461)" fill="white" fill-opacity="0"/>
		</clipPath>
	</defs>
	<rect rx="6.795987" width="136.000000" height="136.000000" fill="#FAFAFA" fill-opacity="1.000000"/>
	<path d="M26.61 86.01C27.85 87.02 28.32 86.94 30.66 86.79L52.68 85.46C53.15 85.46 52.76 85 52.6 84.92L48.94 82.28C48.25 81.73 47.31 81.11 45.52 81.27L24.2 82.82C23.42 82.9 23.26 83.29 23.57 83.6L26.61 86.01ZM27.93 91.14L27.93 114.31C27.93 115.56 28.55 116.03 29.96 115.95L54.16 114.55C55.56 114.47 55.72 113.62 55.72 112.6L55.72 89.59C55.72 88.58 55.33 88.03 54.48 88.11L29.18 89.59C28.25 89.66 27.93 90.13 27.93 91.14ZM51.83 92.39C51.98 93.08 51.83 93.78 51.13 93.86L49.96 94.09L49.96 111.21C48.95 111.75 48.01 112.06 47.23 112.06C45.99 112.06 45.68 111.67 44.75 110.5L37.12 98.53L37.12 110.12L39.53 110.66C39.53 110.66 39.53 112.06 37.58 112.06L32.21 112.37C32.06 112.06 32.21 111.28 32.76 111.13L34.16 110.74L34.16 95.42L32.22 95.26C32.06 94.56 32.45 93.55 33.54 93.47L39.3 93.09L47.24 105.22L47.24 94.49L45.21 94.25C45.06 93.4 45.68 92.77 46.46 92.7L51.83 92.39ZM22.41 80.72L44.59 79.09C47.31 78.85 48.01 79.01 49.73 80.26L56.81 85.23C57.98 86.09 58.37 86.32 58.37 87.25L58.37 114.55C58.37 116.26 57.74 117.27 55.56 117.43L29.8 118.98C28.17 119.06 27.39 118.83 26.53 117.74L21.32 110.97C20.38 109.73 20 108.79 20 107.7L20 83.44C20 82.04 20.62 80.87 22.41 80.72Z" fill="#C2C2C2" fill-opacity="1.000000" fill-rule="nonzero"/>
	<rect rx="0.000000" width="39.000000" height="39.000000" transform="translate(79.117188 79.956055)" fill="#FFFFFF" fill-opacity="0"/>
	<g clip-path="url(#clip2862_34598)">
		<path d="M81.95 110.18L88.1 105.47C91.37 109.74 94.84 111.7 98.7 111.7C102.55 111.7 105.92 109.76 109.04 105.53L115.28 110.13C110.78 116.23 105.18 119.45 98.7 119.45C92.25 119.45 86.6 116.25 81.95 110.18ZM98.68 89.7L87.73 99.13L82.67 93.27L98.71 79.45L114.61 93.28L109.53 99.13L98.68 89.7Z" fill="#C2C2C2" fill-opacity="1.000000" fill-rule="nonzero"/>
	</g>
	<rect rx="0.000000" width="39.000000" height="39.000000" transform="translate(48.117188 19.647461)" fill="#FFFFFF" fill-opacity="0"/>
	<g clip-path="url(#clip2862_34600)">
		<path d="M66.48 40.05L60.79 40.05L60.79 36.87L66.48 36.87L66.48 40.05L66.48 40.05ZM72.16 19.14L72.16 29.14L82.16 29.14L72.16 19.14ZM74.43 36.87L68.75 36.87L68.75 40.05L74.43 40.05L74.43 36.87ZM74.43 42.32L68.75 42.32L68.75 45.51L74.43 45.51L74.43 42.32ZM82.16 29.98L82.16 56.42C82.16 57.92 80.94 59.14 79.43 59.14L55.79 59.14C55.43 59.14 55.08 59.07 54.75 58.93C54.42 58.8 54.12 58.6 53.86 58.34C53.35 57.83 53.07 57.14 53.07 56.42L53.07 21.87C53.07 20.36 54.28 19.14 55.79 19.14L71.32 19.14L71.32 29.98L82.16 29.98ZM76.7 34.6L58.52 34.6L58.52 47.78L76.7 47.78L76.7 34.6L76.7 34.6ZM66.48 42.32L60.79 42.32L60.79 45.51L66.48 45.51L66.48 42.32L66.48 42.32Z" fill="#C2C2C2" fill-opacity="1.000000" fill-rule="nonzero"/>
	</g>
</svg>
