<svg width="136.000000" height="136.000000" viewBox="0 0 136 136" fill="none" xmlns="http://www.w3.org/2000/svg" xmlns:xlink="http://www.w3.org/1999/xlink">
	<desc>
			Created with Pixso.
	</desc>
	<defs>
		<clipPath id="clip2862_34919">
			<rect rx="0.000000" width="39.000000" height="39.000000" transform="translate(19.500000 78.500000)" fill="white" fill-opacity="0"/>
		</clipPath>
		<clipPath id="clip2862_34921">
			<rect rx="0.000000" width="39.000000" height="39.000000" transform="translate(48.500000 18.500000)" fill="white" fill-opacity="0"/>
		</clipPath>
		<clipPath id="clip2862_34924">
			<rect rx="0.000000" width="32.332474" height="39.000000" transform="translate(83.500000 78.500000)" fill="white" fill-opacity="0"/>
		</clipPath>
		<linearGradient x1="83.045441" y1="111.057022" x2="116.377914" y2="111.057022" id="paint_linear_2862_34925_0" gradientUnits="userSpaceOnUse">
			<stop stop-color="#8930FD"/>
			<stop offset="1.000000" stop-color="#49CCF9"/>
		</linearGradient>
		<linearGradient x1="83.685982" y1="87.784027" x2="115.623466" y2="87.784027" id="paint_linear_2862_34926_0" gradientUnits="userSpaceOnUse">
			<stop stop-color="#FF02F0"/>
			<stop offset="1.000000" stop-color="#FFC800"/>
		</linearGradient>
	</defs>
	<rect rx="6.795987" width="136.000000" height="136.000000" fill="#FAFAFA" fill-opacity="1.000000"/>
	<rect rx="0.000000" width="39.000000" height="39.000000" transform="translate(19.500000 78.500000)" fill="#FFFFFF" fill-opacity="0"/>
	<g clip-path="url(#clip2862_34919)">
		<path d="M26.42 85.01C27.67 86.02 28.14 85.94 30.47 85.78L52.5 84.46C52.96 84.46 52.57 84 52.42 83.92L48.76 81.27C48.06 80.73 47.12 80.11 45.33 80.26L24.01 81.82C23.23 81.9 23.08 82.29 23.39 82.6L26.42 85.01ZM27.75 90.14L27.75 113.32C27.75 114.56 28.37 115.03 29.77 114.95L53.98 113.55C55.37 113.47 55.53 112.62 55.53 111.6L55.53 88.58C55.53 87.57 55.14 87.03 54.28 87.11L28.99 88.58C28.06 88.66 27.75 89.13 27.75 90.14ZM51.64 91.38C51.8 92.08 51.64 92.78 50.94 92.86L49.77 93.1L49.77 110.2C48.76 110.75 47.83 111.06 47.05 111.06C45.8 111.06 45.49 110.67 44.56 109.51L36.93 97.53L36.93 109.12L39.34 109.66C39.34 109.66 39.34 111.06 37.4 111.06L32.03 111.37C31.87 111.06 32.03 110.28 32.57 110.13L33.97 109.74L33.97 94.42L32.03 94.26C31.87 93.56 32.26 92.55 33.35 92.47L39.11 92.08L47.05 104.22L47.05 93.48L45.03 93.25C44.87 92.39 45.49 91.77 46.27 91.7L51.64 91.38ZM22.22 79.72L44.4 78.09C47.12 77.85 47.83 78.01 49.54 79.25L56.62 84.23C57.79 85.08 58.18 85.32 58.18 86.25L58.18 113.55C58.18 115.26 57.56 116.27 55.38 116.43L29.62 117.98C27.98 118.06 27.2 117.83 26.34 116.74L21.13 109.97C20.19 108.72 19.81 107.79 19.81 106.7L19.81 82.44C19.81 81.04 20.43 79.87 22.22 79.72Z" fill="#000000" fill-opacity="1.000000" fill-rule="nonzero"/>
	</g>
	<rect rx="0.000000" width="39.000000" height="39.000000" transform="translate(48.500000 18.500000)" fill="#FFFFFF" fill-opacity="0"/>
	<g clip-path="url(#clip2862_34921)">
		<path d="M66.86 38.9L61.17 38.9L61.17 35.72L66.86 35.72L66.86 38.9L66.86 38.9ZM72.54 18L72.54 28L82.54 28L72.54 18ZM74.81 35.72L69.13 35.72L69.13 38.9L74.81 38.9L74.81 35.72ZM74.81 41.18L69.13 41.18L69.13 44.36L74.81 44.36L74.81 41.18ZM82.54 28.83L82.54 55.27C82.54 56.78 81.32 58 79.81 58L56.17 58C55.82 58 55.46 57.92 55.13 57.79C54.8 57.65 54.5 57.45 54.25 57.2C53.74 56.68 53.45 55.99 53.45 55.27L53.45 20.72C53.45 19.21 54.67 18 56.17 18L71.71 18L71.71 28.83L82.54 28.83ZM77.08 33.45L58.9 33.45L58.9 46.63L77.08 46.63L77.08 33.45L77.08 33.45ZM66.86 41.18L61.17 41.18L61.17 44.36L66.86 44.36L66.86 41.18L66.86 41.18Z" fill="#34A853" fill-opacity="1.000000" fill-rule="nonzero"/>
		<path d="M72.5 28L82.5 28L72.5 18L72.5 28Z" fill="#188038" fill-opacity="1.000000" fill-rule="evenodd"/>
	</g>
	<rect rx="0.000000" width="32.332474" height="39.000000" transform="translate(83.500000 78.500000)" fill="#FFFFFF" fill-opacity="0"/>
	<g clip-path="url(#clip2862_34924)">
		<path d="M83 108.73L89.15 104.01C92.41 108.28 95.89 110.25 99.75 110.25C103.62 110.25 106.97 108.3 110.09 104.07L116.33 108.67C111.82 114.77 106.23 118 99.75 118C93.27 118 87.64 114.79 83 108.73Z" fill="url(#paint_linear_2862_34925_0)" fill-opacity="1.000000" fill-rule="nonzero"/>
		<path d="M99.73 88.25L88.78 97.68L83.72 91.81L99.75 78L115.66 91.82L110.58 97.67L99.73 88.25Z" fill="url(#paint_linear_2862_34926_0)" fill-opacity="1.000000" fill-rule="nonzero"/>
	</g>
</svg>
