<svg width="105" height="162" viewBox="0 0 105 162" fill="none" xmlns="http://www.w3.org/2000/svg">
<path d="M27.1053 66.4381C19.4709 69.6868 16.7093 83.9808 12.3239 86.0925C8.87845 87.7516 3.9315 90.3699 2.09059 92.1025V110.945L18.1712 116.143C21.03 123.68 35.0104 135.039 41.237 138.883L45.7851 160H62.3533L66.2517 146.518C75.3479 149.117 88.884 147.601 94.515 146.518L97.6013 160H114.657L119.205 138.883C125.702 136.284 141.41 131.167 144.869 103.473C145.519 98.275 145.021 94.7125 144.484 90.803M27.1053 66.4381C25.4268 60.6988 22.7196 48.1806 25.3185 44.0223C28.5672 38.8245 49.5211 46.7837 53.9068 49.7075C54.2679 49.9483 54.5883 50.2783 54.8707 50.682M27.1053 66.4381C32.3031 84.3707 47.1387 76.5089 53.9068 70.3365C56.4407 68.8459 58.0172 55.1817 54.8707 50.682M54.8707 50.682L65.7641 47.271C80.6938 47.1085 108.775 48.3431 114.657 51.3318C124.093 54.7717 141.224 67.079 144.484 90.803M111.733 64.6513C104.911 61.8358 86.7183 57.8941 68.5257 64.6513M38.9629 87.2295C38.5839 89.4494 36.9812 93.9217 33.6026 94.0517C29.3794 94.2141 27.755 88.6914 27.4302 87.2295M144.484 90.803C150.406 90.4782 160.138 89.1787 161.113 84.9554C162.396 79.3957 156.33 76.1146 152.178 79.92C148.28 83.4935 148.443 99.0871 162.574 100.387" stroke="#393939" stroke-opacity="0.1" stroke-width="4" stroke-linecap="round" stroke-linejoin="round"/>
<circle cx="31.1872" cy="31.1872" r="31.1872" transform="matrix(-1 0 0 1 122.125 0)" fill="#EBF7EB"/>
<circle cx="31.1872" cy="31.1872" r="29.1872" transform="matrix(-1 0 0 1 122.125 0)" stroke="#393939" stroke-opacity="0.1" stroke-width="4"/>
<mask id="path-4-inside-1_2862_34735" fill="white">
<path d="M100.838 34.8987C100.3 33.9284 99.5717 33.0807 98.6974 32.4081C97.8232 31.7356 96.8221 31.2525 95.7563 30.989C94.7565 30.6845 93.7418 30.433 92.7163 30.2353V19.5541C94.755 19.776 96.7001 20.5397 98.3553 21.768C98.4696 21.8709 98.6027 21.9499 98.7471 22.0005C98.8914 22.0511 99.0442 22.0724 99.1967 22.0631C99.3491 22.0538 99.4983 22.0141 99.6356 21.9463C99.773 21.8785 99.8958 21.7839 99.9972 21.6679C100.098 21.552 100.176 21.4169 100.226 21.2703C100.276 21.1238 100.297 20.9688 100.288 20.814C100.279 20.6593 100.24 20.5079 100.173 20.3685C100.106 20.2291 100.013 20.1044 99.8985 20.0016C97.8219 18.3783 95.3283 17.397 92.7163 17.1752V13.5246C92.7163 13.2122 92.594 12.9127 92.3764 12.6918C92.1588 12.471 91.8637 12.3469 91.556 12.3469C91.2482 12.3469 90.9531 12.471 90.7355 12.6918C90.5179 12.9127 90.3957 13.2122 90.3957 13.5246V17.0575C85.2903 17.1752 82.4708 19.7543 81.6122 21.98C81.0394 23.4133 80.985 25.006 81.4586 26.4761C81.9322 27.9462 82.9032 29.1986 84.1997 30.0115C86.0868 31.1791 88.2005 31.9183 90.3957 32.1784V42.9656C87.3665 42.8108 84.4647 41.6806 82.1111 39.7388C82.0061 39.612 81.8759 39.509 81.729 39.4368C81.582 39.3645 81.4218 39.3245 81.2586 39.3194C81.0954 39.3143 80.933 39.3442 80.782 39.4071C80.6309 39.4701 80.4947 39.5647 80.3822 39.6847C80.2696 39.8048 80.1833 39.9476 80.1289 40.1038C80.0745 40.26 80.0531 40.4261 80.0663 40.5913C80.0794 40.7565 80.1268 40.917 80.2052 41.0623C80.2837 41.2076 80.3914 41.3345 80.5215 41.4346C83.2973 43.8054 86.7708 45.1724 90.3957 45.3209V48.8538C90.3957 49.1661 90.5179 49.4656 90.7355 49.6865C90.9531 49.9073 91.2482 50.0314 91.556 50.0314C91.8637 50.0314 92.1588 49.9073 92.3764 49.6865C92.594 49.4656 92.7163 49.1661 92.7163 48.8538V45.3209C95.9883 45.0971 99.7593 44.0372 101.186 39.7153C101.445 38.9289 101.547 38.0984 101.487 37.2717C101.427 36.445 101.207 35.6385 100.838 34.8987ZM85.5108 28.0331C84.6635 27.5212 84.024 26.7194 83.7071 25.7717C83.3902 24.8241 83.4167 23.7928 83.782 22.8633C83.9096 22.51 85.2091 19.5541 90.3957 19.4128V29.776C88.6648 29.5499 87.0003 28.9561 85.5108 28.0331ZM98.9819 38.9145C98.1465 41.4346 96.29 42.6476 92.7163 42.9185V32.6377C93.4589 32.8025 94.2247 32.991 95.0369 33.2383C95.8041 33.4151 96.5279 33.7485 97.1642 34.2182C97.8005 34.6879 98.336 35.284 98.7382 35.9704C99.1933 36.8823 99.2807 37.9383 98.9819 38.9145Z"/>
</mask>
<path d="M100.838 34.8987C100.3 33.9284 99.5717 33.0807 98.6974 32.4081C97.8232 31.7356 96.8221 31.2525 95.7563 30.989C94.7565 30.6845 93.7418 30.433 92.7163 30.2353V19.5541C94.755 19.776 96.7001 20.5397 98.3553 21.768C98.4696 21.8709 98.6027 21.9499 98.7471 22.0005C98.8914 22.0511 99.0442 22.0724 99.1967 22.0631C99.3491 22.0538 99.4983 22.0141 99.6356 21.9463C99.773 21.8785 99.8958 21.7839 99.9972 21.6679C100.098 21.552 100.176 21.4169 100.226 21.2703C100.276 21.1238 100.297 20.9688 100.288 20.814C100.279 20.6593 100.24 20.5079 100.173 20.3685C100.106 20.2291 100.013 20.1044 99.8985 20.0016C97.8219 18.3783 95.3283 17.397 92.7163 17.1752V13.5246C92.7163 13.2122 92.594 12.9127 92.3764 12.6918C92.1588 12.471 91.8637 12.3469 91.556 12.3469C91.2482 12.3469 90.9531 12.471 90.7355 12.6918C90.5179 12.9127 90.3957 13.2122 90.3957 13.5246V17.0575C85.2903 17.1752 82.4708 19.7543 81.6122 21.98C81.0394 23.4133 80.985 25.006 81.4586 26.4761C81.9322 27.9462 82.9032 29.1986 84.1997 30.0115C86.0868 31.1791 88.2005 31.9183 90.3957 32.1784V42.9656C87.3665 42.8108 84.4647 41.6806 82.1111 39.7388C82.0061 39.612 81.8759 39.509 81.729 39.4368C81.582 39.3645 81.4218 39.3245 81.2586 39.3194C81.0954 39.3143 80.933 39.3442 80.782 39.4071C80.6309 39.4701 80.4947 39.5647 80.3822 39.6847C80.2696 39.8048 80.1833 39.9476 80.1289 40.1038C80.0745 40.26 80.0531 40.4261 80.0663 40.5913C80.0794 40.7565 80.1268 40.917 80.2052 41.0623C80.2837 41.2076 80.3914 41.3345 80.5215 41.4346C83.2973 43.8054 86.7708 45.1724 90.3957 45.3209V48.8538C90.3957 49.1661 90.5179 49.4656 90.7355 49.6865C90.9531 49.9073 91.2482 50.0314 91.556 50.0314C91.8637 50.0314 92.1588 49.9073 92.3764 49.6865C92.594 49.4656 92.7163 49.1661 92.7163 48.8538V45.3209C95.9883 45.0971 99.7593 44.0372 101.186 39.7153C101.445 38.9289 101.547 38.0984 101.487 37.2717C101.427 36.445 101.207 35.6385 100.838 34.8987ZM85.5108 28.0331C84.6635 27.5212 84.024 26.7194 83.7071 25.7717C83.3902 24.8241 83.4167 23.7928 83.782 22.8633C83.9096 22.51 85.2091 19.5541 90.3957 19.4128V29.776C88.6648 29.5499 87.0003 28.9561 85.5108 28.0331ZM98.9819 38.9145C98.1465 41.4346 96.29 42.6476 92.7163 42.9185V32.6377C93.4589 32.8025 94.2247 32.991 95.0369 33.2383C95.8041 33.4151 96.5279 33.7485 97.1642 34.2182C97.8005 34.6879 98.336 35.284 98.7382 35.9704C99.1933 36.8823 99.2807 37.9383 98.9819 38.9145Z" fill="#393939" fill-opacity="0.1"/>
<path d="M100.838 34.8987L104.419 33.1152L104.379 33.0362L104.337 32.9591L100.838 34.8987ZM95.7563 30.989L94.5911 34.8155L94.6928 34.8465L94.7961 34.872L95.7563 30.989ZM92.7163 30.2353H88.7163V33.5379L91.9591 34.163L92.7163 30.2353ZM92.7163 19.5541L93.1492 15.5776L88.7163 15.095V19.5541H92.7163ZM98.3553 21.768L101.031 18.7947L100.891 18.6684L100.739 18.5559L98.3553 21.768ZM99.8985 20.0016L102.574 17.0283L102.471 16.9355L102.362 16.8501L99.8985 20.0016ZM92.7163 17.1752H88.7163V20.85L92.3778 21.1609L92.7163 17.1752ZM91.556 12.3469V8.34692V12.3469ZM90.3957 17.0575L90.4879 21.0564L94.3957 20.9663V17.0575H90.3957ZM81.6122 21.98L85.3265 23.4645L85.3355 23.4421L85.3441 23.4197L81.6122 21.98ZM84.1997 30.0115L82.0747 33.4004L82.0849 33.4068L82.0951 33.4131L84.1997 30.0115ZM90.3957 32.1784H94.3957V28.6244L90.8663 28.2062L90.3957 32.1784ZM90.3957 42.9656L90.1915 46.9604L94.3957 47.1752V42.9656H90.3957ZM82.1111 39.7388L79.03 42.2897L79.2724 42.5824L79.5655 42.8243L82.1111 39.7388ZM80.5215 41.4346L83.1193 38.393L83.0422 38.3272L82.9619 38.2653L80.5215 41.4346ZM90.3957 45.3209H94.3957V41.4813L90.5593 41.3242L90.3957 45.3209ZM92.7163 45.3209L92.4434 41.3302L88.7163 41.585V45.3209H92.7163ZM101.186 39.7153L104.985 40.9695L104.987 40.9631L101.186 39.7153ZM85.5108 28.0331L87.6177 24.6329L87.5985 24.6211L87.5793 24.6094L85.5108 28.0331ZM83.782 22.8633L87.5049 24.326L87.5252 24.2745L87.544 24.2224L83.782 22.8633ZM90.3957 19.4128H94.3957V15.3023L90.2867 15.4142L90.3957 19.4128ZM90.3957 29.776L89.8777 33.7423L94.3957 34.3324V29.776H90.3957ZM98.9819 38.9145L102.779 40.1731L102.793 40.1293L102.807 40.0852L98.9819 38.9145ZM92.7163 42.9185H88.7163V47.2331L93.0186 46.907L92.7163 42.9185ZM92.7163 32.6377L93.5832 28.7327L88.7163 27.6522V32.6377H92.7163ZM95.0369 33.2383L93.8717 37.0648L94.0038 37.105L94.1384 37.136L95.0369 33.2383ZM98.7382 35.9704L102.317 34.1843L102.257 34.0641L102.189 33.9481L98.7382 35.9704ZM104.337 32.9591C103.535 31.5133 102.447 30.2458 101.136 29.2378L96.2584 35.5785C96.6965 35.9155 97.0657 36.3435 97.3401 36.8384L104.337 32.9591ZM101.136 29.2378C99.8259 28.2296 98.3217 27.5029 96.7164 27.1059L94.7961 34.872C95.3224 35.0022 95.8204 35.2416 96.2584 35.5785L101.136 29.2378ZM96.9214 27.1624C95.7876 26.8172 94.6367 26.5318 93.4734 26.3076L91.9591 34.163C92.8468 34.3341 93.7253 34.5519 94.5911 34.8155L96.9214 27.1624ZM96.7163 30.2353V19.5541H88.7163V30.2353H96.7163ZM92.2834 23.5306C93.6117 23.6752 94.8841 24.1732 95.9716 24.9802L100.739 18.5559C98.5161 16.9062 95.8984 15.8769 93.1492 15.5776L92.2834 23.5306ZM95.6796 24.7413C96.1851 25.1962 96.7772 25.5485 97.4233 25.7751L100.071 18.2259C100.428 18.3513 100.754 18.5456 101.031 18.7947L95.6796 24.7413ZM97.4233 25.7751C98.0695 26.0017 98.7551 26.0975 99.4401 26.0557L98.9532 18.0705C99.3333 18.0474 99.7133 18.1005 100.071 18.2259L97.4233 25.7751ZM99.4401 26.0557C100.125 26.0139 100.793 25.8357 101.406 25.5331L97.865 18.3596C98.2033 18.1926 98.5732 18.0937 98.9532 18.0705L99.4401 26.0557ZM101.406 25.5331C102.019 25.2306 102.563 24.8104 103.01 24.2996L96.9848 19.0363C97.2284 18.7574 97.5269 18.5265 97.865 18.3596L101.406 25.5331ZM103.01 24.2996C103.456 23.7889 103.796 23.1972 104.013 22.5595L96.4396 19.9812C96.557 19.6365 96.7413 19.315 96.9848 19.0363L103.01 24.2996ZM104.013 22.5595C104.23 21.9219 104.321 21.2487 104.281 20.5777L96.2949 21.0504C96.2735 20.6888 96.3223 20.3258 96.4396 19.9812L104.013 22.5595ZM104.281 20.5777C104.241 19.9067 104.072 19.2483 103.78 18.6399L96.5656 22.0972C96.4077 21.7675 96.3163 21.4119 96.2949 21.0504L104.281 20.5777ZM103.78 18.6399C103.488 18.0313 103.08 17.4831 102.574 17.0283L97.2228 22.9749C96.946 22.7258 96.7236 22.4269 96.5656 22.0972L103.78 18.6399ZM102.362 16.8501C99.6766 14.7511 96.4455 13.4775 93.0547 13.1896L92.3778 21.1609C94.211 21.3166 95.9672 22.0056 97.4351 23.153L102.362 16.8501ZM96.7163 17.1752V13.5246H88.7163V17.1752H96.7163ZM96.7163 13.5246C96.7163 12.1704 96.1868 10.8599 95.2258 9.88447L89.5271 15.4992C89.0013 14.9655 88.7163 14.2541 88.7163 13.5246H96.7163ZM95.2258 9.88447C94.2627 8.90706 92.9439 8.34692 91.556 8.34692V16.3469C90.7835 16.3469 90.0549 16.0349 89.5271 15.4992L95.2258 9.88447ZM91.556 8.34692C90.1681 8.34692 88.8492 8.90706 87.8862 9.88447L93.5848 15.4992C93.057 16.0349 92.3284 16.3469 91.556 16.3469V8.34692ZM87.8862 9.88447C86.9251 10.8599 86.3957 12.1704 86.3957 13.5246H94.3957C94.3957 14.2541 94.1107 14.9655 93.5848 15.4992L87.8862 9.88447ZM86.3957 13.5246V17.0575H94.3957V13.5246H86.3957ZM90.3034 13.0585C83.8354 13.2077 79.4092 16.577 77.8803 20.5404L85.3441 23.4197C85.5324 22.9315 86.7453 21.1428 90.4879 21.0564L90.3034 13.0585ZM77.8978 20.4956C76.979 22.7947 76.8921 25.3463 77.6513 27.7027L85.2659 25.2495C85.0778 24.6657 85.0998 24.0318 85.3265 23.4645L77.8978 20.4956ZM77.6513 27.7027C78.4107 30.0599 79.9723 32.0822 82.0747 33.4004L86.3246 26.6226C85.8341 26.3151 85.4537 25.8324 85.2659 25.2495L77.6513 27.7027ZM82.0951 33.4131C84.4767 34.8866 87.1478 35.8215 89.925 36.1506L90.8663 28.2062C89.2532 28.015 87.6969 27.4716 86.3042 26.6099L82.0951 33.4131ZM86.3957 32.1784V42.9656H94.3957V32.1784H86.3957ZM90.5998 38.9708C88.434 38.8601 86.3519 38.0519 84.6567 36.6534L79.5655 42.8243C82.5774 45.3092 86.299 46.7615 90.1915 46.9604L90.5998 38.9708ZM85.1922 37.188C84.7292 36.6287 84.1516 36.1708 83.4949 35.8477L79.963 43.0258C79.6001 42.8473 79.283 42.5952 79.03 42.2897L85.1922 37.188ZM83.4949 35.8477C82.8379 35.5244 82.1184 35.3443 81.3837 35.3213L81.1334 43.3174C80.7251 43.3046 80.3261 43.2045 79.963 43.0258L83.4949 35.8477ZM81.3837 35.3213C80.649 35.2983 79.9192 35.4331 79.2428 35.7151L82.3211 43.0991C81.9467 43.2552 81.5418 43.3302 81.1334 43.3174L81.3837 35.3213ZM79.2428 35.7151C78.5665 35.997 77.961 36.4188 77.4638 36.9491L83.3005 42.4203C83.0284 42.7106 82.6953 42.9431 82.3211 43.0991L79.2428 35.7151ZM77.4638 36.9491C76.9668 37.4793 76.589 38.1064 76.3516 38.7876L83.9062 41.42C83.7776 41.7888 83.5724 42.1302 83.3005 42.4203L77.4638 36.9491ZM76.3516 38.7876C76.1143 39.4688 76.0218 40.1913 76.0789 40.9088L84.0536 40.2738C84.0845 40.661 84.0346 41.0513 83.9062 41.42L76.3516 38.7876ZM76.0789 40.9088C76.136 41.6264 76.3418 42.3261 76.6853 42.9624L83.7251 39.1622C83.9117 39.5078 84.0228 39.8866 84.0536 40.2738L76.0789 40.9088ZM76.6853 42.9624C77.0289 43.5988 77.5034 44.1591 78.0811 44.604L82.9619 38.2653C83.2795 38.5099 83.5385 38.8164 83.7251 39.1622L76.6853 42.9624ZM77.9238 44.4763C81.3765 47.4251 85.7057 49.1322 90.232 49.3175L90.5593 41.3242C87.8359 41.2127 85.2182 40.1856 83.1193 38.393L77.9238 44.4763ZM86.3957 45.3209V48.8538H94.3957V45.3209H86.3957ZM86.3957 48.8538C86.3957 50.208 86.9251 51.5185 87.8862 52.4939L93.5848 46.8791C94.1107 47.4128 94.3957 48.1242 94.3957 48.8538H86.3957ZM87.8862 52.4939C88.8492 53.4713 90.1681 54.0314 91.556 54.0314V46.0314C92.3284 46.0314 93.057 46.3434 93.5848 46.8791L87.8862 52.4939ZM91.556 54.0314C92.9439 54.0314 94.2627 53.4713 95.2258 52.4939L89.5271 46.8791C90.0549 46.3434 90.7835 46.0314 91.556 46.0314V54.0314ZM95.2258 52.4939C96.1868 51.5185 96.7163 50.208 96.7163 48.8538H88.7163C88.7163 48.1242 89.0013 47.4128 89.5271 46.8791L95.2258 52.4939ZM96.7163 48.8538V45.3209H88.7163V48.8538H96.7163ZM92.9892 49.3115C96.7286 49.0558 102.763 47.6981 104.985 40.9695L97.3882 38.461C97.0111 39.6031 96.4189 40.167 95.7303 40.5419C94.92 40.9831 93.8113 41.2366 92.4434 41.3302L92.9892 49.3115ZM104.987 40.9631C105.408 39.6812 105.574 38.3288 105.477 36.9833L97.4975 37.56C97.5198 37.8679 97.4816 38.1766 97.3861 38.4675L104.987 40.9631ZM105.477 36.9833C105.379 35.6379 105.021 34.3233 104.419 33.1152L97.258 36.6823C97.3932 36.9537 97.4753 37.2521 97.4975 37.56L105.477 36.9833ZM87.5793 24.6094C87.5529 24.5935 87.5195 24.5598 87.5006 24.5032L79.9136 27.0403C80.5284 28.8789 81.7742 30.4489 83.4424 31.4568L87.5793 24.6094ZM87.5006 24.5032C87.4813 24.4455 87.4832 24.3811 87.5049 24.326L80.059 21.4005C79.3502 23.2045 79.299 25.2027 79.9136 27.0403L87.5006 24.5032ZM87.544 24.2224C87.414 24.5822 87.3981 24.4188 87.7086 24.1674C87.9582 23.9654 88.7144 23.4601 90.5046 23.4113L90.2867 15.4142C86.8904 15.5068 84.4036 16.5501 82.6748 17.9496C81.007 19.2998 80.2776 20.791 80.0199 21.5042L87.544 24.2224ZM86.3957 19.4128V29.776H94.3957V19.4128H86.3957ZM90.9137 25.8097C89.7489 25.6576 88.6257 25.2576 87.6177 24.6329L83.4039 31.4332C85.3749 32.6545 87.5807 33.4423 89.8777 33.7423L90.9137 25.8097ZM95.1851 37.6559C95.0076 38.1913 94.8408 38.3131 94.7142 38.3944C94.4765 38.5471 93.8592 38.8204 92.414 38.9299L93.0186 46.907C95.1471 46.7457 97.2449 46.2771 99.0377 45.1255C100.942 43.9026 102.121 42.1579 102.779 40.1731L95.1851 37.6559ZM96.7163 42.9185V32.6377H88.7163V42.9185H96.7163ZM91.8493 36.5426C92.5297 36.6936 93.1893 36.857 93.8717 37.0648L96.202 29.4117C95.26 29.1249 94.388 28.9114 93.5832 28.7327L91.8493 36.5426ZM94.1384 37.136C94.3695 37.1893 94.591 37.2905 94.7887 37.4364L99.5397 31C98.4648 30.2066 97.2387 29.6409 95.9354 29.3405L94.1384 37.136ZM94.7887 37.4364C94.9866 37.5825 95.1571 37.7709 95.2871 37.9927L102.189 33.9481C101.515 32.7972 100.614 31.7933 99.5397 31L94.7887 37.4364ZM95.1591 37.7564C95.1568 37.7517 95.1564 37.7488 95.1564 37.7483C95.1563 37.7477 95.1563 37.7462 95.1571 37.7438L102.807 40.0852C103.405 38.1302 103.231 36.0157 102.317 34.1843L95.1591 37.7564Z" fill="#393939" fill-opacity="0.1" mask="url(#path-4-inside-1_2862_34735)"/>
</svg>
