       <svg width="506" height="484" viewBox="0 0 506 484" fill="none" xmlns="http://www.w3.org/2000/svg">
                      <path d="M34.0977 475.26C39.7773 480.94 51.5724 481.597 66.2087 478.755L71.6704 454.501L72.327 478.755C82.5939 480.066 92.2043 478.973 103.781 476.571C106.402 435.273 108.151 407.521 108.151 407.521C108.151 407.521 48.7368 385.888 43.9317 409.049C42.1828 417.789 38.4699 443.356 34.1005 475.257L34.0977 475.26Z" fill="#393939"/>
                      <path d="M56.1594 289.527C44.3643 289.527 34.7539 278.603 34.7539 265.055C34.7539 251.508 44.3643 240.583 56.1594 240.583C67.9544 240.583 77.5648 251.508 77.5648 265.055C77.5648 278.603 67.9544 289.527 56.1594 289.527Z" fill="#FFB9B9"/>
                      <path d="M60.7109 268.062L61.4076 271.054" stroke="#393939" stroke-width="0.849498" stroke-linecap="round"/>
                      <path d="M47.2936 261.988C48.0474 260.837 50.5625 258.836 54.5922 260.039" stroke="#393939" stroke-width="0.849498" stroke-linecap="round"/>
                      <path d="M70.9215 257.535C69.8012 256.737 66.731 255.786 63.4134 258.37" stroke="#393939" stroke-width="0.849498" stroke-linecap="round"/>
                      <ellipse cx="52.1854" cy="265.141" rx="1.91114" ry="1.91113" transform="rotate(-13.1093 52.1854 265.141)" fill="#393939"/>
                      <ellipse cx="67.0799" cy="261.674" rx="1.91114" ry="1.91113" transform="rotate(-13.1093 67.0799 261.674)" fill="#393939"/>
                      <path d="M58.4453 279.386C60.34 280.426 64.8539 281.447 67.752 277.219" stroke="#393939" stroke-width="0.849498" stroke-linecap="round"/>
                      <path d="M7.23 449.474L25.1405 444.448C24.7047 438.329 22.0814 403.368 22.0814 393.098C22.0814 381.735 39.1203 340.874 39.1203 340.874V342.402C39.5561 341.309 39.7768 340.653 39.7768 340.653L43.0539 417.131C48.2977 419.098 53.5387 420.409 59.0004 420.844C59.4362 420.844 59.8749 420.844 60.5286 421.062C71.67 421.937 82.8085 420.188 91.7652 418.003C103.124 415.161 110.768 411.666 110.768 411.666L99.8474 336.716L124.312 363.155L164.723 310.495L152.054 296.29L123.438 327.974L95.6959 293.013H93.7291C87.6137 292.795 81.2775 293.231 75.3799 293.888C68.1722 294.762 61.4002 296.29 55.064 297.822C54.8461 297.822 54.6282 298.04 54.1895 298.04C38.8995 302.191 27.7581 307.218 27.7581 307.218C27.7581 307.218 6.35268 374.957 4.38588 387.63C2.63697 400.303 7.22426 449.468 7.22426 449.468L7.23 449.474Z" fill="#49B348"/>
                      <path d="M28.1992 261.557C28.1992 261.557 28.8558 246.042 32.3507 243.857C35.8457 241.672 36.7201 242.765 36.7201 242.765C36.7201 242.765 39.3406 235.118 45.4589 232.712C51.5743 230.309 76.6955 234.022 77.3492 243.418C77.785 252.814 59 246.26 59 246.26C59 246.26 64.8976 252.379 57.0332 255.874C49.1689 259.369 43.2713 250.63 43.2713 250.63C43.2713 250.63 43.7071 271.171 37.3738 271.606C30.6018 272.042 28.1992 261.554 28.1992 261.554V261.557Z" fill="#393939"/>
                      <path d="M149.867 303.075C149.867 303.075 157.293 291.494 162.536 289.309C167.78 287.124 177.608 282.098 177.173 286.468C176.955 290.838 167.124 294.333 167.124 294.333C169.09 295.643 171.929 297.828 175.642 300.013C184.378 305.257 191.588 307.878 191.15 310.283C191.15 310.719 190.932 310.94 190.714 310.94C186.127 315.31 164.282 304.603 164.282 304.603L152.923 318.151H140.91L149.867 303.075Z" fill="#FFB9B9"/>
                      <path d="M18.3686 436.148C18.3686 436.148 31.0381 455.814 26.6687 458.653C22.2993 461.494 19.8967 451.442 19.8967 451.442C19.8967 451.442 21.2069 483.346 16.8375 483.128C12.4681 482.907 9.84766 437.24 9.84766 437.24L18.3657 436.148H18.3686Z" fill="#FFB9B9"/>
                      <path d="M75.3818 293.897C77.3486 313.564 86.9589 402.934 91.7641 420.415C103.123 417.574 110.767 414.079 110.767 414.079L99.8464 337.6L124.311 364.478L164.722 310.725L152.053 296.303L123.437 328.643L95.6949 293.026H93.7281C87.6126 292.59 81.2764 293.026 75.3789 293.9L75.3818 293.897Z" fill="#393939"/>
                      <path d="M3.5156 451.006L25.1418 445.326V444.451C24.706 438.332 22.0827 403.372 22.0827 393.101C22.0827 381.738 39.1216 340.877 39.1216 340.877V342.405C38.2471 355.296 38.0292 369.062 38.2471 383.702C38.465 396.811 39.1216 409.488 39.996 421.286C41.9628 422.161 45.6757 423.471 50.0451 423.689C54.4145 423.907 57.9094 422.815 59.8733 422.161C59.8733 421.725 60.0912 421.504 60.0912 421.068C64.4606 398.125 56.5963 316.402 54.8474 298.049C38.0292 302.2 26.0134 307.227 26.0134 307.227C26.0134 307.227 2.42325 375.619 0.456451 388.511C-1.51035 401.402 3.5156 451.006 3.5156 451.006Z" fill="#393939"/>
                      <path d="M55.9414 286.467L57.0338 300.669C57.2517 304.385 60.3108 307.005 64.0236 306.787C67.5186 306.569 70.1391 303.292 69.9212 299.794L68.6109 281.22C65.116 284.061 60.7466 286.028 55.9414 286.464V286.467Z" fill="#FFB9B9"/>
                      <path d="M33.4437 280.131C30.6053 276.415 29.9487 272.266 31.9155 270.517C33.8823 268.988 37.8131 270.517 40.6543 274.233C43.4927 277.946 44.1492 282.098 42.1824 283.847C40.2156 285.596 36.2849 283.847 33.4437 280.133V280.131Z" fill="#FFB9B9"/>
                      <rect x="370" y="312.6" width="136" height="136" rx="6.79599" fill="#FAFAFA"/>
                      <path d="M459.817 331C460.32 331 460.77 331.19 461.166 331.571C461.531 331.937 461.714 332.379 461.714 332.897V369.103C461.714 369.621 461.531 370.063 461.166 370.429C460.77 370.81 460.32 371 459.817 371H429.326C428.823 371 428.373 370.81 427.977 370.429C427.611 370.063 427.429 369.621 427.429 369.103V362.429H417.897C417.394 362.429 416.945 362.246 416.549 361.88C416.183 361.484 416 361.034 416 360.531V341.469C416 340.966 416.183 340.516 416.549 340.12C416.945 339.754 417.394 339.571 417.897 339.571H427.429V332.897C427.429 332.379 427.611 331.937 427.977 331.571C428.373 331.19 428.823 331 429.326 331M427.429 353.423L430.126 358.497H434.217L429.714 351.137L434.126 343.891H430.217L427.726 348.486L427.634 348.623L427.566 348.783C427.17 347.975 426.743 347.16 426.286 346.337C425.905 345.53 425.501 344.714 425.074 343.891H420.937L425.257 351.183L420.571 358.497H424.64M443.154 368.143V362.429H430.286V368.143M443.154 359.571V352.44H438.857V359.571M443.154 349.583V342.429H438.857V349.583M443.154 339.571V333.857H430.286V339.571M458.857 368.143V362.429H446.011V368.143M458.857 359.571V352.44H446.011V359.571M458.857 349.583V342.429H446.011V349.583M458.857 339.571V333.857H446.011V339.571H458.857Z" fill="#C2C2C2"/>
                      <path d="M431.817 391C432.32 391 432.77 391.19 433.166 391.571C433.531 391.937 433.714 392.379 433.714 392.897V429.103C433.714 429.621 433.531 430.063 433.166 430.429C432.77 430.81 432.32 431 431.817 431H401.326C400.823 431 400.373 430.81 399.977 430.429C399.611 430.063 399.429 429.621 399.429 429.103V422.429H389.897C389.394 422.429 388.945 422.246 388.549 421.88C388.183 421.484 388 421.034 388 420.531V401.469C388 400.966 388.183 400.516 388.549 400.12C388.945 399.754 389.394 399.571 389.897 399.571H399.429V392.897C399.429 392.379 399.611 391.937 399.977 391.571C400.373 391.19 400.823 391 401.326 391M399.497 409.491L402.24 418.497H405.371L408.366 403.503H405.211L403.429 412.371L400.891 403.8H398.286L395.566 412.417L393.783 403.503H390.491L393.486 418.497H396.617M430.857 428.143V422.429H402.286V428.143M430.857 419.571V412.44H410.857V419.571M430.857 409.583V402.429H410.857V409.583M430.857 399.571V393.857H402.286V399.571H430.857Z" fill="#C2C2C2"/>
                      <g clip-path="url(#clip0_2862_34569)">
                      <path d="M473.16 402.359H471.949V391.147H456.799C455.29 391.147 454.07 392.367 454.07 393.874V428.421C454.07 429.927 455.29 431.147 456.797 431.147H480.434C481.94 431.147 483.16 429.927 483.16 428.421V402.359H473.16ZM472.252 419.784H460.432V417.511H472.249V419.784H472.252ZM476.797 414.329H460.434V412.056H476.797V414.329ZM476.797 408.874H460.434V406.602H476.797V408.874ZM473.16 401.147H483.16L473.16 391.147V401.147Z" fill="#C2C2C2"/>
                      </g>
                      <path aria-label="1" d="M364.461 343.324H264.645C260.422 343.324 256.999 339.901 256.999 335.679V300" stroke="#393939" stroke-width="1.699" stroke-linecap="round" stroke-linejoin="round" stroke-dasharray="8.49 8.49">
                        <animate attributeName="stroke-dashoffset" from="16.98" to="0" dur="1s" repeatCount="indefinite"></animate>
                      </path>
                      <rect x="370" y="156" width="136" height="136" rx="6.79599" fill="#FAFAFA"/>
                      <path d="M396.616 242.014C397.861 243.024 398.326 242.947 400.664 242.79L422.687 241.469C423.155 241.469 422.767 241.004 422.61 240.927L418.951 238.281C418.252 237.736 417.318 237.113 415.529 237.27L394.201 238.826C393.425 238.903 393.268 239.291 393.579 239.602L396.616 242.014ZM397.938 247.146V270.319C397.938 271.563 398.56 272.032 399.961 271.955L424.169 270.553C425.567 270.476 425.724 269.62 425.724 268.609V245.59C425.724 244.583 425.336 244.035 424.48 244.112L399.182 245.59C398.249 245.667 397.938 246.136 397.938 247.146ZM421.834 248.39C421.988 249.09 421.834 249.789 421.132 249.869L419.964 250.1V267.211C418.954 267.753 418.018 268.064 417.238 268.064C415.994 268.064 415.683 267.676 414.749 266.509L407.12 254.532V266.121L409.535 266.666C409.535 266.666 409.535 268.064 407.588 268.064L402.219 268.375C402.062 268.064 402.219 267.288 402.764 267.131L404.163 266.746V251.421L402.222 251.267C402.065 250.568 402.453 249.558 403.544 249.478L409.304 249.093L417.244 261.223V250.491L415.221 250.257C415.064 249.401 415.686 248.778 416.465 248.701L421.834 248.39ZM392.412 236.725L414.595 235.093C417.318 234.856 418.021 235.016 419.73 236.26L426.812 241.238C427.982 242.091 428.37 242.325 428.37 243.258V270.553C428.37 272.266 427.748 273.279 425.567 273.43L399.807 274.986C398.172 275.066 397.393 274.832 396.536 273.741L391.321 266.977C390.388 265.732 390 264.799 390 263.709V239.445C390 238.047 390.622 236.879 392.412 236.725Z" fill="#C2C2C2"/>
                      <g clip-path="url(#clip1_2862_34569)">
                      <path d="M451.949 266.188L458.099 261.474C461.368 265.741 464.839 267.706 468.704 267.706C472.549 267.706 475.921 265.763 479.043 261.533L485.283 266.131C480.779 272.231 475.184 275.456 468.704 275.456C462.246 275.456 456.596 272.253 451.949 266.188ZM468.683 245.706L457.736 255.139L452.676 249.273L468.708 235.456L484.613 249.283L479.529 255.131L468.683 245.706Z" fill="#C2C2C2"/>
                      </g>
                      <g clip-path="url(#clip2_2862_34569)">
                      <path d="M436.479 196.056H430.799V192.874H436.482V196.057L436.479 196.056ZM442.162 175.147V185.147H452.162L442.162 175.147ZM444.434 192.874H438.75V196.057H444.434V192.874ZM444.434 198.329H438.75V201.512H444.434V198.329ZM452.16 185.981V212.421C452.16 213.927 450.94 215.147 449.434 215.147H425.797C425.439 215.147 425.084 215.077 424.754 214.94C424.423 214.803 424.122 214.602 423.869 214.349C423.358 213.837 423.07 213.144 423.07 212.421V177.874C423.07 176.367 424.29 175.147 425.797 175.147H441.327V185.981H452.16ZM446.705 190.602H428.524V203.784H446.707V190.601L446.705 190.602ZM436.479 198.329H430.799V201.512H436.482V198.329H436.479Z" fill="#C2C2C2"/>
                      </g>
                      <path aria-label="3" d="M339 224L366.184 224" stroke="#393939" stroke-width="1.699" stroke-linecap="round" stroke-linejoin="round" stroke-dasharray="8.49 8.49">
                        <animate attributeName="stroke-dashoffset" from="0" to="16.98" dur="1s" repeatCount="indefinite"></animate>
                      </path>
                      <rect x="370" width="136" height="136" rx="6.79599" fill="#FAFAFA"/>
                      <g clip-path="url(#clip3_2862_34569)">
                      <path d="M449.301 38.6845C444.496 38.6845 440.602 42.6014 440.602 47.4334C440.602 52.2654 444.496 56.1823 449.301 56.1823C454.105 56.1823 458 52.2652 458 47.4334C458 42.6014 454.105 38.6845 449.301 38.6845ZM426.699 38.6853C421.895 38.6853 418 42.6014 418 47.4334C418 52.2654 421.895 56.1823 426.699 56.1823C431.504 56.1823 435.399 52.2652 435.399 47.4334C435.399 42.6014 431.504 38.6853 426.699 38.6853ZM446.699 27.7486C446.699 32.5805 442.804 36.4979 438 36.4979C433.195 36.4979 429.301 32.5805 429.301 27.7486C429.301 22.9171 433.195 19 438 19C442.804 19 446.699 22.9174 446.699 27.7484" fill="#C2C2C2"/>
                      </g>
                      <path d="M406.416 77.6899L395.193 83.7354C393.925 84.4214 392.866 85.4373 392.128 86.6757C391.39 87.9141 391 89.3289 391 90.7706V103.233C391 104.675 391.39 106.09 392.128 107.328C392.866 108.567 393.925 109.583 395.193 110.269M409.768 105.062L407.139 103.614C405.886 102.923 404.84 101.909 404.112 100.677C403.384 99.4443 403 98.0391 403 96.6077V92.8199" stroke="#C2C2C2" stroke-linecap="round" stroke-linejoin="round"/>
                      <path d="M416.33 92.6045V96.744C416.33 98.1858 415.94 99.6009 415.202 100.839C414.464 102.078 413.405 103.094 412.137 103.78L401.471 109.549C400.417 110.119 399.248 110.445 398.051 110.503C396.854 110.56 395.659 110.348 394.555 109.882C394.759 110.02 394.972 110.148 395.194 110.267L405.859 116.037C407.028 116.669 408.335 117 409.664 117C410.993 117 412.301 116.669 413.47 116.037L424.135 110.267C425.403 109.581 426.462 108.566 427.2 107.327C427.938 106.089 428.328 104.674 428.328 103.232" stroke="#C2C2C2" stroke-linecap="round" stroke-linejoin="round"/>
                      <path d="M424.137 83.734L413.472 77.9638C412.396 77.3813 411.2 77.0536 409.976 77.006C408.753 76.9585 407.535 77.1923 406.417 77.6894C405.362 78.4268 404.5 79.4078 403.906 80.5491C403.311 81.6905 403 82.9585 403 84.2456V92.6045L406.059 91.0594C407.177 90.4943 408.413 90.1999 409.666 90.1999C410.919 90.1999 412.155 90.4943 413.273 91.0594L423.938 96.4482C425.232 97.1018 426.324 98.0949 427.098 99.3211C427.871 100.547 428.296 101.961 428.329 103.41L428.33 103.232V90.7692C428.33 89.3276 427.94 87.9128 427.202 86.6744C426.464 85.436 425.405 84.4201 424.137 83.734Z" stroke="#C2C2C2" stroke-linecap="round" stroke-linejoin="round"/>
                      <path d="M486.494 77H449.694C448.809 77 448.094 77.715 448.094 78.6V115.4C448.094 116.285 448.809 117 449.694 117H486.494C487.379 117 488.094 116.285 488.094 115.4V78.6C488.094 77.715 487.379 77 486.494 77ZM468.149 97.305L458.549 105.355C458.289 105.575 457.894 105.39 457.894 105.05V101.915C457.894 101.8 457.949 101.685 458.039 101.61L463.529 97L458.039 92.39C457.993 92.3537 457.956 92.3073 457.931 92.2544C457.906 92.2015 457.893 92.1436 457.894 92.085V88.95C457.894 88.61 458.289 88.425 458.549 88.645L468.149 96.69C468.344 96.85 468.344 97.145 468.149 97.305ZM478.294 105.05C478.294 105.27 478.124 105.45 477.919 105.45H468.669C468.464 105.45 468.294 105.27 468.294 105.05V102.65C468.294 102.43 468.464 102.25 468.669 102.25H477.919C478.124 102.25 478.294 102.43 478.294 102.65V105.05Z" fill="#C2C2C2"/>
                      <path aria-label="2" d="M364.461 91L264.645 91C260.422 91 256.999 94.423 256.999 98.6455V134.324" stroke="#393939" stroke-width="1.699" stroke-linecap="round" stroke-linejoin="round" stroke-dasharray="8.49 8.49">
                        <animate attributeName="stroke-dashoffset" from="16.98" to="0" dur="1s" repeatCount="indefinite"></animate>
                      </path>
                      <rect x="179" y="139" width="156.308" height="156.308" rx="6.79599" fill="#FAFAFA"/>
                      <path d="M270.223 248.066V258.835C270.223 260.902 271.372 261.776 273.197 261.776C273.574 261.79 273.951 261.752 274.317 261.663V259.24C274.179 259.255 274.04 259.261 273.902 259.259C273.421 259.259 273.028 259.046 273.028 258.45V248.066H270.223ZM276.071 248.066V258.835C276.071 260.902 277.22 261.776 279.046 261.776C279.425 261.791 279.804 261.753 280.173 261.663V259.24C280.036 259.255 279.898 259.261 279.76 259.259C279.27 259.259 278.874 259.046 278.874 258.45V248.066H276.071ZM242.012 249.065V251.701H245.134V261.7H248.147V251.701H251.269V249.066L242.012 249.065ZM263.946 251.658C260.948 251.658 259.027 253.832 259.027 256.87C259.027 260.024 260.683 261.897 264.427 261.897C265.538 261.906 266.641 261.709 267.68 261.316V258.96C266.718 259.268 265.636 259.574 264.526 259.574C263.035 259.574 261.997 259.084 261.743 257.668C262.523 257.753 263.307 257.799 264.092 257.805C266.225 257.805 268.024 257.234 268.024 255.168C268.024 253.164 266.173 251.658 263.946 251.658ZM286.278 251.662C283.265 251.662 281.517 253.741 281.517 256.779C281.517 259.797 283.286 261.932 286.278 261.932C289.27 261.932 291 259.823 291 256.779C291 253.734 289.29 251.662 286.278 251.662ZM257.71 251.722C256.374 251.734 255.599 252.506 255.103 253.749V251.865H252.319V261.7H255.103V256.546C255.103 254.971 256.017 254.49 257.984 254.643V251.729C257.892 251.724 257.801 251.721 257.71 251.722ZM263.889 253.803C264.678 253.803 265.312 254.34 265.312 255.072C265.312 256.014 264.318 256.309 263.172 256.309C262.685 256.306 262.198 256.267 261.717 256.192C261.753 255.733 261.885 255.286 262.104 254.881C262.28 254.56 262.537 254.291 262.851 254.103C263.165 253.914 263.523 253.812 263.889 253.808V253.803ZM286.278 254.155C287.672 254.155 288.272 255.299 288.272 256.779C288.272 258.258 287.688 259.432 286.278 259.432C284.868 259.432 284.247 258.258 284.247 256.779C284.247 255.297 284.883 254.155 286.278 254.155Z" fill="#293856"/>
                      <path d="M224.332 248.066H235.311C235.486 248.066 235.659 248.1 235.821 248.167C235.983 248.233 236.13 248.332 236.254 248.455C236.378 248.579 236.476 248.726 236.543 248.888C236.61 249.05 236.644 249.224 236.643 249.399V260.377C236.644 260.552 236.61 260.726 236.543 260.888C236.476 261.05 236.378 261.197 236.254 261.32C236.13 261.444 235.983 261.542 235.821 261.609C235.659 261.676 235.486 261.71 235.311 261.709H224.332C224.157 261.71 223.984 261.676 223.822 261.609C223.66 261.542 223.513 261.444 223.389 261.32C223.265 261.197 223.167 261.05 223.1 260.888C223.034 260.726 222.999 260.552 223 260.377V249.399C222.999 249.224 223.034 249.05 223.1 248.888C223.167 248.726 223.265 248.579 223.389 248.455C223.513 248.332 223.66 248.233 223.822 248.167C223.984 248.1 224.157 248.066 224.332 248.066Z" fill="url(#paint0_linear_2862_34569)"/>
                      <path d="M231.348 249.84H234.23C234.585 249.84 234.87 250.126 234.87 250.479V255.169C234.87 255.253 234.854 255.337 234.822 255.414C234.79 255.492 234.743 255.563 234.683 255.622C234.624 255.682 234.553 255.729 234.475 255.761C234.398 255.793 234.314 255.809 234.23 255.809H231.348C231.264 255.809 231.181 255.793 231.103 255.761C231.025 255.729 230.955 255.682 230.895 255.622C230.836 255.563 230.789 255.492 230.757 255.414C230.725 255.337 230.708 255.253 230.709 255.169V250.479C230.708 250.395 230.725 250.312 230.757 250.235C230.789 250.157 230.836 250.086 230.895 250.027C230.955 249.968 231.026 249.92 231.103 249.888C231.181 249.856 231.264 249.84 231.348 249.84V249.84ZM225.413 249.84H228.295C228.649 249.84 228.935 250.126 228.935 250.479V258.58C228.935 258.664 228.919 258.747 228.887 258.825C228.855 258.903 228.807 258.973 228.748 259.033C228.689 259.092 228.618 259.139 228.54 259.171C228.462 259.204 228.379 259.22 228.295 259.22H225.413C225.329 259.22 225.246 259.204 225.168 259.171C225.09 259.139 225.02 259.092 224.96 259.033C224.901 258.973 224.854 258.903 224.822 258.825C224.79 258.747 224.773 258.664 224.773 258.58V250.479C224.773 250.125 225.059 249.84 225.413 249.84Z" fill="white"/>
                      <path d="M273.841 204.353C273.425 205.01 273.017 205.671 272.616 206.337C272.268 206.92 272.441 207.679 273.026 208.03L281.013 212.93C281.596 213.281 282.354 213.105 282.704 212.522C283.078 211.852 283.467 211.191 283.87 210.538C287.018 205.345 290.225 205.929 295.94 208.67L303.871 212.404C304.51 212.697 305.212 212.404 305.502 211.822L309.293 203.244C309.584 202.662 309.293 201.903 308.709 201.61C307.018 200.853 303.695 199.278 300.779 197.819C289.993 192.626 280.838 192.976 273.841 204.353Z" fill="url(#paint1_linear_2862_34569)"/>
                      <path d="M309.64 184.866C310.056 184.21 310.464 183.549 310.865 182.883C311.213 182.299 311.038 181.541 310.455 181.19L302.468 176.288C301.885 175.94 301.126 176.115 300.777 176.698C300.402 177.368 300.014 178.029 299.611 178.682C296.461 183.873 293.256 183.29 287.54 180.549L279.61 176.815C278.97 176.523 278.27 176.815 277.978 177.399L274.189 185.974C273.897 186.559 274.189 187.317 274.771 187.608C276.463 188.368 279.785 189.943 282.701 191.401C293.488 196.536 302.643 196.244 309.64 184.866Z" fill="url(#paint2_linear_2862_34569)"/>
                      <path d="M269.987 223.424C269.509 223.743 268.751 223.875 267.953 223.875C265.424 223.875 264 222.362 264 219.931C264 217.596 265.424 215.963 267.938 215.963C268.685 215.963 269.443 216.109 269.987 216.494V217.516C269.443 217.171 268.83 216.985 267.939 216.985C266.128 216.985 265.064 218.181 265.064 219.946C265.064 221.711 266.182 222.879 268.004 222.879C268.816 222.879 269.443 222.693 270.001 222.416V223.424L269.987 223.424ZM270.72 220.836C270.72 219.081 271.744 217.809 273.501 217.809C275.245 217.809 276.27 219.082 276.27 220.836C276.27 222.588 275.245 223.889 273.501 223.889C271.758 223.875 270.72 222.588 270.72 220.836ZM271.704 220.836C271.704 221.951 272.25 222.947 273.515 222.947C274.752 222.947 275.298 221.937 275.298 220.836C275.298 219.733 274.766 218.737 273.515 218.737C272.251 218.737 271.704 219.72 271.704 220.836ZM282.419 223.769H281.407V220.237C281.407 219.19 280.981 218.725 280.023 218.725C279.09 218.725 278.44 219.349 278.44 220.531V223.783H277.426V217.941H278.44V218.896C278.811 218.206 279.503 217.821 280.289 217.821C281.633 217.821 282.405 218.751 282.405 220.357V223.768L282.419 223.769ZM286.743 217.929V218.857H285.225V223.769H284.242V218.857H283.296V217.929H284.242V217.29C284.242 216.203 284.854 215.473 286.104 215.473C286.41 215.473 286.609 215.525 286.782 215.565V216.494C286.609 216.455 286.384 216.441 286.145 216.441C285.518 216.441 285.213 216.799 285.213 217.331V217.929L286.743 217.929ZM289.391 223.795C288.434 223.795 287.821 223.344 287.821 222.269V215.485H288.833V222.149C288.833 222.682 289.178 222.867 289.619 222.867C289.724 222.867 289.79 222.867 289.91 222.854V223.757C289.817 223.782 289.645 223.795 289.391 223.795ZM290.761 217.929H291.773V221.458C291.773 222.508 292.199 222.972 293.157 222.972C294.088 222.972 294.74 222.348 294.74 221.167V217.929H295.753V223.769H294.741V222.813C294.368 223.504 293.675 223.889 292.891 223.889C291.547 223.889 290.775 222.959 290.775 221.353V217.929L290.761 217.929ZM300.064 223.875C297.868 223.875 296.91 222.614 296.91 220.822C296.91 219.056 297.896 217.795 299.679 217.795C301.488 217.795 302.207 219.044 302.207 220.822V221.272H297.936C298.081 222.269 298.719 222.906 300.103 222.906C300.784 222.906 301.355 222.773 301.888 222.587V223.517C301.395 223.783 300.65 223.875 300.064 223.875ZM297.908 220.423H301.182C301.128 219.335 300.636 218.725 299.625 218.725C298.56 218.725 298.015 219.402 297.908 220.423ZM308.368 223.769H307.357V220.237C307.357 219.19 306.931 218.725 305.973 218.725C305.041 218.725 304.39 219.349 304.39 220.531V223.783H303.378V217.941H304.39V218.896C304.763 218.206 305.454 217.821 306.238 217.821C307.582 217.821 308.354 218.751 308.354 220.357V223.768L308.368 223.769ZM313.917 223.609C313.571 223.795 313.025 223.875 312.493 223.875C310.405 223.875 309.434 222.614 309.434 220.822C309.434 219.056 310.405 217.795 312.493 217.795C313.025 217.795 313.424 217.861 313.891 218.075V219.004C313.518 218.831 313.119 218.725 312.573 218.725C311.057 218.725 310.431 219.681 310.431 220.822C310.431 221.963 311.071 222.919 312.601 222.919C313.199 222.919 313.572 222.839 313.931 222.707V223.609H313.917ZM317.856 223.875C315.662 223.875 314.703 222.614 314.703 220.822C314.703 219.056 315.688 217.795 317.471 217.795C319.28 217.795 320 219.044 320 220.822V221.272H315.728C315.874 222.269 316.514 222.906 317.898 222.906C318.576 222.906 319.148 222.773 319.681 222.587V223.517C319.188 223.783 318.457 223.875 317.856 223.875ZM315.714 220.423H318.989C318.935 219.335 318.443 218.725 317.431 218.725C316.354 218.725 315.821 219.402 315.714 220.423Z" fill="#253858"/>
                      <g clip-path="url(#clip4_2862_34569)">
                      <path d="M235.676 175.931H218.035C218.035 180.329 221.595 183.888 225.991 183.888H229.237V187.029C229.237 191.427 232.796 194.986 237.194 194.986V177.449C237.194 177.047 237.034 176.661 236.749 176.376C236.464 176.092 236.078 175.932 235.676 175.931Z" fill="#2684FF"/>
                      <path d="M226.934 184.726H209.293C209.293 189.124 212.851 192.683 217.249 192.683H220.494V195.824C220.494 200.222 224.054 203.782 228.452 203.782V186.245C228.451 185.842 228.291 185.456 228.007 185.172C227.722 184.887 227.336 184.727 226.934 184.726Z" fill="url(#paint3_linear_2862_34569)"/>
                      <path d="M218.193 193.52H200.551C200.551 197.918 204.111 201.477 208.508 201.477H211.754V204.619C211.754 209.015 215.313 212.575 219.711 212.575V195.038C219.711 194.636 219.551 194.25 219.266 193.965C218.981 193.681 218.595 193.52 218.193 193.52Z" fill="url(#paint4_linear_2862_34569)"/>
                      <path d="M211.97 214.547H213.312V221.179C213.312 222.93 212.514 224.151 210.661 224.151C209.966 224.151 209.421 224.035 209.047 223.903V222.632C209.456 222.797 209.948 222.879 210.441 222.879C211.58 222.879 211.97 222.221 211.97 221.262V214.547ZM215.776 214.034C216.302 214.034 216.676 214.348 216.676 214.908C216.676 215.453 216.302 215.784 215.776 215.784C215.25 215.784 214.876 215.47 214.876 214.908C214.876 214.365 215.25 214.034 215.776 214.034ZM215.114 216.823H216.405V224.085H215.114V216.823ZM219.598 224.085H218.341V216.823H219.598V218.094C220.041 217.235 220.789 216.625 222.249 216.708V217.929C220.601 217.765 219.598 218.242 219.598 219.794L219.598 224.085ZM228.282 222.78C227.806 223.738 226.905 224.233 225.749 224.233C223.763 224.233 222.76 222.599 222.76 220.453C222.76 218.407 223.813 216.675 225.903 216.675C226.989 216.675 227.839 217.153 228.282 218.094V216.823H229.573V224.085H228.282V222.78ZM226.089 223.078C227.245 223.078 228.264 222.369 228.264 220.751V220.174C228.264 218.557 227.33 217.847 226.225 217.847C224.782 217.847 224.034 218.771 224.034 220.453C224.051 222.203 224.765 223.078 226.089 223.078Z" fill="#253858"/>
                      </g>
                      <defs>
                      <linearGradient id="paint0_linear_2862_34569" x1="229.822" y1="248.066" x2="229.822" y2="261.71" gradientUnits="userSpaceOnUse">
                      <stop stop-color="#2684FF"/>
                      <stop offset="1" stop-color="#0052CC"/>
                      </linearGradient>
                      <linearGradient id="paint1_linear_2862_34569" x1="309.101" y1="215.47" x2="284.972" y2="201.616" gradientUnits="userSpaceOnUse">
                      <stop stop-color="#0052CC"/>
                      <stop offset="0.918" stop-color="#2380FB"/>
                      <stop offset="1" stop-color="#2684FF"/>
                      </linearGradient>
                      <linearGradient id="paint2_linear_2862_34569" x1="274.379" y1="173.734" x2="298.508" y2="187.59" gradientUnits="userSpaceOnUse">
                      <stop stop-color="#0052CC"/>
                      <stop offset="0.918" stop-color="#2380FB"/>
                      <stop offset="1" stop-color="#2684FF"/>
                      </linearGradient>
                      <linearGradient id="paint3_linear_2862_34569" x1="228.085" y1="184.746" x2="220.579" y2="192.486" gradientUnits="userSpaceOnUse">
                      <stop offset="0.176" stop-color="#0052CC"/>
                      <stop offset="1" stop-color="#2684FF"/>
                      </linearGradient>
                      <linearGradient id="paint4_linear_2862_34569" x1="219.852" y1="193.588" x2="211.173" y2="202.031" gradientUnits="userSpaceOnUse">
                      <stop offset="0.176" stop-color="#0052CC"/>
                      <stop offset="1" stop-color="#2684FF"/>
                      </linearGradient>
                      <clipPath id="clip0_2862_34569">
                      <rect width="40" height="40" fill="white" transform="translate(448.617 391.147)"/>
                      </clipPath>
                      <clipPath id="clip1_2862_34569">
                      <rect width="40" height="40" fill="white" transform="translate(448.617 235.456)"/>
                      </clipPath>
                      <clipPath id="clip2_2862_34569">
                      <rect width="40" height="40" fill="white" transform="translate(417.617 175.147)"/>
                      </clipPath>
                      <clipPath id="clip3_2862_34569">
                      <rect width="40" height="37.2414" fill="white" transform="translate(418 19)"/>
                      </clipPath>
                      <clipPath id="clip4_2862_34569">
                      <rect width="50" height="50" fill="white" transform="translate(194 174.999)"/>
                      </clipPath>
                      </defs>
                      </svg>