<svg width="509" height="569" viewBox="0 0 509 569" fill="none" xmlns="http://www.w3.org/2000/svg">
<path d="M163.08 122.062L129.156 171.483L133.203 138.798L105.91 108.808H85.2428L78.7283 124.533L98.951 155.04L61.3188 150.03L50.6484 119.591L73.4492 81.0655L113.66 73.6523L163.08 122.062Z" fill="#24EAA4"/>
<path d="M163.08 122.062L129.156 171.483L133.203 138.798L105.91 108.808H85.2428L78.7283 124.533L98.951 155.04L61.3188 150.03L50.6484 119.591L73.4492 81.0655L113.66 73.6523L163.08 122.062Z" fill="#24EAA4"/>
<path d="M345.797 122.062L379.721 171.483L375.674 138.798L402.967 108.808H423.634L430.149 124.533L409.926 155.04L447.558 150.03L458.229 119.591L435.428 81.0655L395.217 73.6523L345.797 122.062Z" fill="#0FC686"/>
<path d="M113.868 179.209L65.8952 172.783L0 239.311L113.868 179.209Z" fill="#24EAA4"/>
<path d="M395.009 179.209L442.982 172.783L508.877 239.311L395.009 179.209Z" fill="#0FC686"/>
<path d="M94.1795 219.264L42.1336 257.733L15.7031 362.188L94.1795 219.264Z" fill="#24EAA4"/>
<path d="M414.697 219.264L466.743 257.733L493.174 362.188L414.697 219.264Z" fill="#0FC686"/>
<path d="M57.7988 354.371L112.554 257.853L101.06 354.371L143.902 539.881L57.7988 354.371Z" fill="#24EAA4"/>
<path d="M451.078 354.371L396.323 257.853L407.816 354.371L364.975 539.881L451.078 354.371Z" fill="#0FC686"/>
<path d="M133.988 434.741L149.377 379.968L198.001 484.407H183.688L133.988 434.741Z" fill="#24EAA4"/>
<path d="M372.469 434.741L357.08 379.968L303.501 484.407H320.79L372.469 434.741Z" fill="#0FC686"/>
<path d="M242.199 369.905H254.299L254.3 432.188H216.325L194.771 411.013V397.022L208.6 399.777L242.199 369.905Z" fill="#24EAA4"/>
<path d="M266.4 369.905H254.3L254.3 432.188H292.275L313.828 411.013V397.022L299.999 399.777L266.4 369.905Z" fill="#11C788"/>
<path d="M91.3281 37.2122L175.782 87.2495L165.455 43.8128L226.992 88.541L232.526 34.0246C239.764 40.8738 254.252 54.5723 254.297 54.5723C254.343 54.5723 254.316 40.3245 254.297 33.2006L225.116 0L216.628 49.9441L141.22 16.3029L153.383 54.1361L91.3281 37.2122Z" fill="#24EAA4"/>
<path d="M417.264 37.2122L332.81 87.2495L343.137 43.8128L281.6 88.541L276.066 34.0246C268.828 40.8738 254.34 54.5723 254.294 54.5723C254.249 54.5723 254.275 40.3245 254.294 33.2006L283.476 0L291.964 49.9441L367.371 16.3029L355.209 54.1361L417.264 37.2122Z" fill="#0FC686"/>
<path fill-rule="evenodd" clip-rule="evenodd" d="M222.809 171.407L233.445 153.516L210.379 124.405L179.877 128.962L165.749 147.344L177.337 160.487L136.859 222.997L141.942 278.054L163.429 300.141L183.896 281.355L168.171 333.212L201.302 376.487L244.636 345.936V322.709L209.945 296.24L216.607 282.975L254.3 291.318V224.61L242.629 189.872L222.809 171.407ZM158.519 207.357C158.606 207.797 168.526 222.79 173.475 230.232L218.565 255.746L205.478 215.385L158.519 207.357Z" fill="#24EAA4"/>
<path fill-rule="evenodd" clip-rule="evenodd" d="M285.791 171.407L275.155 153.516L298.22 124.405L328.723 128.962L342.85 147.344L331.263 160.487L371.74 222.997L366.658 278.054L345.17 300.141L324.704 281.355L340.429 333.212L307.298 376.487L263.963 345.936V322.709L298.655 296.24L291.993 282.975L254.3 291.318V224.61L265.971 189.872L285.791 171.407ZM350.05 207.357C349.962 207.797 340.042 222.79 335.093 230.232L290.004 255.746L303.091 215.385L350.05 207.357Z" fill="#0FC686"/>
<path d="M166 567.832V497.423H199.024C201.867 497.423 204.578 497.755 207.157 498.418C209.801 499.015 212.115 500.042 214.099 501.501C216.082 502.893 217.669 504.749 218.859 507.07C220.049 509.39 220.644 512.241 220.644 515.622C220.644 518.539 220.049 521.224 218.859 523.677C217.735 526.064 215.917 528.02 213.404 529.545C216.842 530.871 219.421 532.992 221.14 535.91C222.925 538.76 223.818 542.208 223.818 546.252C223.818 550.628 222.892 554.208 221.041 556.992C219.256 559.777 216.942 561.965 214.099 563.556C211.322 565.147 208.181 566.274 204.677 566.937C201.173 567.534 197.702 567.832 194.264 567.832H166ZM193.57 525.368C196.876 525.368 199.553 524.871 201.603 523.876C203.719 522.816 204.776 520.959 204.776 518.307C204.776 516.981 204.479 515.921 203.884 515.125C203.355 514.263 202.628 513.633 201.702 513.236C200.843 512.771 199.818 512.473 198.628 512.34C197.504 512.208 196.314 512.142 195.058 512.142H182.165V525.368H193.57ZM182.165 553.213H194.363C196.215 553.213 197.934 553.114 199.52 552.915C201.173 552.716 202.595 552.352 203.785 551.821C204.975 551.291 205.9 550.528 206.562 549.534C207.289 548.473 207.652 547.114 207.652 545.457C207.652 543.998 207.322 542.838 206.661 541.976C206.066 541.048 205.239 540.352 204.181 539.887C203.124 539.423 201.9 539.125 200.512 538.992C199.124 538.86 197.669 538.794 196.148 538.794H182.165V553.213Z" fill="white"/>
<path d="M221.971 512.241V497.423H280.979V512.241H259.558V567.832H243.393V512.241H221.971Z" fill="white"/>
<path d="M295.703 532.429C295.703 535.081 296.034 537.666 296.695 540.186C297.356 542.705 298.381 544.959 299.769 546.948C301.224 548.937 303.075 550.561 305.323 551.821C307.637 553.015 310.381 553.611 313.554 553.611C317.653 553.611 320.959 552.716 323.471 550.926C326.05 549.136 327.703 546.584 328.43 543.269H344C343.669 547.445 342.612 551.125 340.826 554.307C339.041 557.423 336.76 560.042 333.984 562.164C331.207 564.285 328.033 565.876 324.463 566.937C320.893 567.998 317.19 568.528 313.356 568.528C307.868 568.528 303.009 567.666 298.777 565.943C294.546 564.219 290.943 561.799 287.968 558.683C285.058 555.501 282.844 551.722 281.323 547.346C279.802 542.904 279.042 537.965 279.042 532.528C279.042 527.224 279.835 522.385 281.422 518.009C283.009 513.567 285.257 509.755 288.166 506.573C291.141 503.39 294.744 500.937 298.976 499.213C303.273 497.423 308.1 496.528 313.455 496.528C317.422 496.528 321.124 497.059 324.562 498.119C328.066 499.114 331.141 500.672 333.785 502.794C336.496 504.849 338.711 507.468 340.43 510.65C342.149 513.832 343.207 517.611 343.603 521.987H328.232C327.438 518.672 325.818 516.086 323.372 514.23C320.926 512.374 317.653 511.445 313.554 511.445C310.314 511.445 307.571 512.042 305.323 513.236C303.075 514.363 301.224 515.921 299.769 517.91C298.381 519.832 297.356 522.053 296.695 524.573C296.034 527.092 295.703 529.711 295.703 532.429Z" fill="white"/>
</svg>
