<svg width="136" height="136" viewBox="0 0 136 136" fill="none" xmlns="http://www.w3.org/2000/svg">
<rect width="136" height="136" rx="6.79599" transform="matrix(-1 0 0 1 136 0)" fill="#FAFAFA"/>
<g clip-path="url(#clip0_2994_1303)">
<path d="M87.3823 34.2284C89.3189 34.2284 90.2317 34.5848 91.6338 35.9894L99.1577 43.5235C99.3807 43.7464 99.4253 43.8357 99.4693 43.9692C99.4921 44.0138 99.4921 44.0806 99.4921 44.1254C99.4921 44.1702 99.4921 44.2368 99.4693 44.2816C99.4253 44.4151 99.3805 44.5045 99.1577 44.7273L94.0161 49.8983C93.7932 50.1213 93.7045 50.1659 93.5704 50.2106C93.5264 50.2327 93.4596 50.2327 93.4148 50.2327C93.37 50.2327 93.3034 50.2327 93.2586 50.2106C93.1252 50.1659 93.0363 50.1211 92.8136 49.8983L78.2326 35.2981C77.8101 34.8743 77.9657 34.2284 78.6783 34.2284H87.3821H87.3823ZM108.618 25.0221C106.682 25.0221 105.769 25.3785 104.367 26.7832L96.8426 34.3172C96.6197 34.5401 96.5751 34.6294 96.5311 34.7629C96.5083 34.8075 96.5083 34.8743 96.5083 34.9191C96.5083 34.9639 96.5083 35.0305 96.5311 35.0753C96.5751 35.2088 96.6199 35.2982 96.8426 35.521L101.984 40.67C102.207 40.8929 102.296 40.9376 102.43 40.9822C102.474 41.0043 102.541 41.0043 102.586 41.0043C102.63 41.0043 102.697 41.0043 102.742 40.9822C102.875 40.9376 102.964 40.8927 103.187 40.67L117.767 26.0697C118.19 25.6459 118.035 25 117.322 25H108.618V25.0221H108.618Z" fill="#C2C2C2"/>
</g>
<g clip-path="url(#clip1_2994_1303)">
<path d="M49.3008 98.6845C44.4963 98.6845 40.6016 102.601 40.6016 107.433C40.6016 112.265 44.4963 116.182 49.3008 116.182C54.1053 116.182 58 112.265 58 107.433C58 102.601 54.1053 98.6845 49.3008 98.6845ZM26.6992 98.6853C21.8948 98.6853 18 102.601 18 107.433C18 112.265 21.8948 116.182 26.6992 116.182C31.5039 116.182 35.3989 112.265 35.3989 107.433C35.3989 102.601 31.5039 98.6853 26.6992 98.6853ZM46.6992 87.7486C46.6992 92.5805 42.8044 96.4979 38.0002 96.4979C33.1955 96.4979 29.3008 92.5805 29.3008 87.7486C29.3008 82.9171 33.1953 79 38 79C42.8042 79 46.6989 82.9174 46.6989 87.7484" fill="#C2C2C2"/>
</g>
<path d="M40.7807 20.0536V24.0022H56.7569C57.4434 24.0022 58 24.5587 58 25.2454V52.4231C58 53.1097 57.4434 53.6662 56.7569 53.6662H40.7807V57.9464L18 53.9148V24.0781L40.7807 20.0536ZM33.2213 36.6329C33.298 35.419 33.0098 34.1884 32.1932 33.4014C31.2215 32.4646 30.5737 32.3005 27.7956 32.4444L25.5389 32.5612V45.3077H27.8334V40.8828C32.0666 41.2441 33.0479 38.8023 33.2213 36.6329ZM30.5841 36.6329C30.4641 38.7041 29.5048 38.6169 27.8333 38.5884V34.7369C29.712 34.6707 30.5229 34.928 30.5841 36.6329ZM54.9081 36.6217L50.6025 41.1125L46.1017 36.6217H49.4668V30.7217H40.7807V42.2562L44.2395 38.8526L49.3849 44.0017C49.3849 44.0017 44.349 48.9134 44.2295 48.9134C44.1102 48.9134 40.7807 45.7382 40.7807 45.7382V52.3552H56.678V25.3133H40.7807V28.591H51.5974V36.6216L54.9081 36.6217Z" fill="#C2C2C2"/>
<rect x="78" y="76" width="40" height="40" rx="10.6667" fill="#C2C2C2"/>
<rect x="79.6016" y="96" width="26.0215" height="26.0215" rx="2.66667" transform="rotate(-45 79.6016 96)" fill="white"/>
<circle cx="97.9995" cy="96" r="9.86667" fill="#C2C2C2"/>
<defs>
<clipPath id="clip0_2994_1303">
<rect width="40" height="25.2325" fill="white" transform="translate(78 25)"/>
</clipPath>
<clipPath id="clip1_2994_1303">
<rect width="40" height="37.2414" fill="white" transform="translate(18 79)"/>
</clipPath>
</defs>
</svg>
