<svg width="137" height="137" viewBox="0 0 137 137" fill="none" xmlns="http://www.w3.org/2000/svg">
<rect x="0.382812" y="0.852539" width="136" height="136" rx="6.79599" fill="#FAFAFA"/>
<g clip-path="url(#clip0_3002_678)">
<path d="M109.646 33.4322V28.6185C110.849 28.0168 111.852 26.8134 111.852 25.4094V25.2088C111.852 23.2031 110.247 21.5986 108.242 21.5986H108.041C106.035 21.5986 104.431 23.2031 104.431 25.2088V25.4094C104.431 26.8134 105.233 28.0168 106.637 28.6185V33.4322C104.832 33.6328 103.027 34.4351 101.623 35.6385L88.3852 25.4094C88.9869 23.2031 87.5829 20.7963 85.3767 20.3951C83.1704 19.994 80.9641 20.9969 80.3624 23.2031C79.7607 25.4094 81.1647 27.8162 83.371 28.4179C84.3738 28.6185 85.5772 28.6185 86.5801 28.0168L99.4166 38.0453C97.0097 41.6556 97.0097 46.2687 99.6171 49.8789L95.6057 53.8904C95.2046 53.8904 95.004 53.6898 94.6029 53.6898C92.7978 53.6898 91.1932 55.2943 91.1932 57.0995C91.1932 58.9046 92.7978 60.3086 94.6029 60.3086C96.408 60.3086 98.0126 58.704 98.0126 56.8989C98.0126 56.4978 98.0126 56.2972 97.812 55.896L101.623 52.0852C106.236 55.4949 112.855 54.6926 116.264 50.0795C119.674 45.4664 118.872 38.8476 114.259 35.4379C113.055 34.4351 111.451 33.6328 109.646 33.4322ZM108.041 49.0767C105.033 49.0767 102.626 46.6698 102.626 43.6613C102.626 40.6527 105.033 38.2459 108.041 38.2459C111.05 38.2459 113.456 40.6527 113.456 43.6613C113.456 46.6698 111.05 49.0767 108.041 49.0767Z" fill="#FF5C35"/>
</g>
<path d="M26.4511 26.8376C27.6633 27.8223 28.1183 27.7476 30.3965 27.5948L51.8705 26.3062C52.3255 26.3062 51.9469 25.8512 51.7957 25.7765L48.2273 23.1976C47.5448 22.6678 46.6332 22.0601 44.888 22.2112L24.0965 23.729C23.3393 23.8037 23.1866 24.184 23.4888 24.4862L26.4511 26.8376ZM27.7397 31.8426V54.4365C27.7397 55.6504 28.3458 56.1054 29.7124 56.029L53.3118 54.664C54.6784 54.5893 54.8312 53.754 54.8312 52.7677V30.3248C54.8312 29.3401 54.4526 28.8087 53.6157 28.8835L28.9536 30.3248C28.0436 30.4012 27.7397 30.8578 27.7397 31.8426ZM51.0369 33.0532C51.188 33.7357 51.0369 34.4182 50.3544 34.4962L49.2169 34.7237V51.4027C48.2289 51.934 47.319 52.2379 46.5601 52.2379C45.3446 52.2379 45.0407 51.8577 44.1308 50.7218L36.6933 39.0446V50.3415L39.0462 50.8745C39.0462 50.8745 39.0462 52.2395 37.1483 52.2395L31.9126 52.5418C31.7615 52.2395 31.9126 51.4807 32.444 51.3295L33.809 50.9509V36.0123L31.9159 35.8596C31.7631 35.1771 32.1434 34.1923 33.2045 34.1159L38.8204 33.7373L46.5617 45.5657V35.1007L44.5874 34.8748C44.4363 34.0396 45.0424 33.4334 45.8012 33.3587L51.0369 33.0532ZM22.3513 21.6815L43.9796 20.089C46.6348 19.8615 47.319 20.0126 48.9878 21.2265L55.8923 26.0787C57.0298 26.9123 57.41 27.1398 57.41 28.0498V54.664C57.41 56.3313 56.8039 57.3193 54.6801 57.4688L29.5613 58.9865C27.9688 59.0629 27.2084 58.8354 26.3731 57.7726L21.2886 51.1752C20.3786 49.9613 20 49.0529 20 47.9902V24.3335C20 22.9701 20.6077 21.831 22.3513 21.6815Z" fill="black"/>
<g clip-path="url(#clip1_3002_678)">
<path d="M82 110.731L88.1509 106.019C91.4188 110.284 94.8907 112.25 98.7554 112.25C102.62 112.25 105.973 110.307 109.094 106.076L115.332 110.674C110.83 116.776 105.234 120 98.7554 120C92.2764 120 86.6474 116.797 82 110.731Z" fill="url(#paint0_linear_3002_678)"/>
<path d="M98.7353 90.2506L87.7873 99.6848L82.7266 93.8156L98.7586 80L114.664 93.8259L109.58 99.6745L98.7353 90.2506Z" fill="url(#paint1_linear_3002_678)"/>
</g>
<g clip-path="url(#clip2_3002_678)">
<path d="M55.0938 80H22.9062C20.7489 80 19 81.7489 19 83.9062V116.094C19 118.251 20.7489 120 22.9062 120H55.0938C57.2511 120 59 118.251 59 116.094V83.9062C59 81.7489 57.2511 80 55.0938 80Z" fill="url(#paint2_linear_3002_678)"/>
<path d="M51.9266 85.2H43.4766C42.441 85.2 41.6016 86.0394 41.6016 87.075V100.825C41.6016 101.86 42.441 102.7 43.4766 102.7H51.9266C52.9621 102.7 53.8016 101.86 53.8016 100.825V87.075C53.8016 86.0394 52.9621 85.2 51.9266 85.2Z" fill="white"/>
<path d="M34.5242 85.2H26.0742C25.0387 85.2 24.1992 86.0394 24.1992 87.075V110.825C24.1992 111.86 25.0387 112.7 26.0742 112.7H34.5242C35.5598 112.7 36.3992 111.86 36.3992 110.825V87.075C36.3992 86.0394 35.5598 85.2 34.5242 85.2Z" fill="white"/>
</g>
<defs>
<linearGradient id="paint0_linear_3002_678" x1="82.0454" y1="113.057" x2="115.378" y2="113.057" gradientUnits="userSpaceOnUse">
<stop stop-color="#8930FD"/>
<stop offset="1" stop-color="#49CCF9"/>
</linearGradient>
<linearGradient id="paint1_linear_3002_678" x1="82.686" y1="89.784" x2="114.623" y2="89.784" gradientUnits="userSpaceOnUse">
<stop stop-color="#FF02F0"/>
<stop offset="1" stop-color="#FFC800"/>
</linearGradient>
<linearGradient id="paint2_linear_3002_678" x1="2019" y1="80" x2="2019" y2="4080" gradientUnits="userSpaceOnUse">
<stop stop-color="#0091E6"/>
<stop offset="1" stop-color="#0079BF"/>
</linearGradient>
<clipPath id="clip0_3002_678">
<rect width="40" height="40" fill="white" transform="translate(79.2227 20.3086)"/>
</clipPath>
<clipPath id="clip1_3002_678">
<rect width="33.3325" height="40" fill="white" transform="translate(82 80)"/>
</clipPath>
<clipPath id="clip2_3002_678">
<rect width="40" height="40" fill="white" transform="translate(19 80)"/>
</clipPath>
</defs>
</svg>
