<svg width="137" height="137" viewBox="0 0 137 137" fill="none" xmlns="http://www.w3.org/2000/svg">
<rect x="0.382812" y="0.451172" width="136" height="136" rx="6.79599" fill="#FAFAFA"/>
<path d="M45.0488 98L28.0195 95V117.168C28.0193 117.409 28.0667 117.647 28.1589 117.87C28.2511 118.092 28.3863 118.295 28.5568 118.465C28.7273 118.635 28.9298 118.77 29.1525 118.862C29.3753 118.954 29.614 119.001 29.8549 119H59.2395C59.4807 119.001 59.7197 118.954 59.9428 118.863C60.1659 118.771 60.3687 118.636 60.5396 118.466C60.7104 118.296 60.8459 118.093 60.9383 117.871C61.0307 117.648 61.0782 117.409 61.078 117.168V109L45.0488 98Z" fill="#185C37"/>
<path d="M45.0488 79H29.8549C29.614 78.9994 29.3753 79.0464 29.1525 79.1382C28.9298 79.23 28.7273 79.3649 28.5568 79.5351C28.3863 79.7054 28.2511 79.9076 28.1589 80.1302C28.0667 80.3528 28.0193 80.5914 28.0195 80.8323V89L45.0488 99L54.0657 102L61.078 99V89L45.0488 79Z" fill="#21A366"/>
<path d="M28.0195 89H45.0488V99H28.0195V89Z" fill="#107C41"/>
<path opacity="0.1" d="M40.2072 87H28.0195V112H40.2072C40.6929 111.998 41.158 111.804 41.5018 111.461C41.8457 111.118 42.0405 110.653 42.0441 110.168V88.8323C42.0405 88.3467 41.8457 87.882 41.5018 87.5391C41.158 87.1961 40.6929 87.0024 40.2072 87Z" fill="black"/>
<path opacity="0.2" d="M39.2057 88H28.0195V113H39.2057C39.6913 112.998 40.1565 112.804 40.5003 112.461C40.8441 112.118 41.039 111.653 41.0426 111.168V89.8323C41.039 89.3467 40.8441 88.882 40.5003 88.5391C40.1565 88.1961 39.6913 88.0024 39.2057 88Z" fill="black"/>
<path opacity="0.2" d="M39.2057 88H28.0195V111H39.2057C39.6913 110.998 40.1565 110.804 40.5003 110.461C40.8441 110.118 41.039 109.653 41.0426 109.168V89.8323C41.039 89.3467 40.8441 88.882 40.5003 88.5391C40.1565 88.1961 39.6913 88.0024 39.2057 88Z" fill="black"/>
<path opacity="0.2" d="M38.2041 88H28.0195V111H38.2041C38.6898 110.998 39.1549 110.804 39.4987 110.461C39.8426 110.118 40.0374 109.653 40.0411 109.168V89.8323C40.0374 89.3467 39.8426 88.882 39.4987 88.5391C39.1549 88.1961 38.6898 88.0024 38.2041 88Z" fill="black"/>
<path d="M19.8369 88H38.2031C38.6896 87.9996 39.1563 88.1924 39.5008 88.5359C39.8452 88.8795 40.0392 89.3458 40.04 89.8323V108.168C40.0392 108.654 39.8452 109.12 39.5008 109.464C39.1563 109.808 38.6896 110 38.2031 110H19.8369C19.5959 110.001 19.357 109.954 19.1341 109.862C18.9111 109.771 18.7085 109.636 18.5378 109.465C18.3672 109.295 18.2318 109.093 18.1395 108.87C18.0472 108.647 17.9998 108.409 18 108.168V89.8323C17.9998 89.5912 18.0472 89.3525 18.1395 89.1298C18.2318 88.9071 18.3672 88.7048 18.5378 88.5346C18.7085 88.3643 18.9111 88.2295 19.1341 88.1377C19.357 88.046 19.5959 87.9992 19.8369 88Z" fill="url(#paint0_linear_2994_1291)"/>
<path d="M23.6914 104.959L27.5545 98.9837L24.016 93.0421H26.8576L28.7883 96.8467C28.9668 97.2067 29.096 97.4744 29.1545 97.6529H29.1806C29.3068 97.3647 29.4401 97.0847 29.5806 96.8129L31.6452 93.0483H34.2606L30.6314 98.956L34.3529 104.964H31.5699L29.3391 100.793C29.2358 100.613 29.1478 100.426 29.076 100.231H29.0391C28.9739 100.421 28.8872 100.602 28.7806 100.771L26.4837 104.959H23.6914Z" fill="white"/>
<path d="M59.2392 79H45.0469V89H61.0761V80.8323C61.0763 80.5912 61.0289 80.3525 60.9366 80.1298C60.8443 79.9071 60.7089 79.7048 60.5382 79.5346C60.3676 79.3643 60.165 79.2295 59.942 79.1377C59.7191 79.046 59.4802 78.9992 59.2392 79Z" fill="#33C481"/>
<path d="M45.0469 99H61.0761V109H45.0469V99Z" fill="#107C41"/>
<path d="M97.8615 39.9083H92.1815V36.7267H97.8648V39.91L97.8615 39.9083ZM103.545 19V29H113.545L103.545 19ZM105.816 36.7267H100.133V39.91H105.816V36.7267ZM105.816 42.1817H100.133V45.365H105.816V42.1817ZM113.543 29.8333V56.2733C113.543 57.78 112.323 59 110.816 59H87.1798C86.8217 59 86.4672 58.9295 86.1363 58.7924C85.8055 58.6554 85.5049 58.4546 85.2517 58.2014C84.7404 57.69 84.4531 56.9965 84.4531 56.2733V21.7267C84.4531 20.22 85.6731 19 87.1798 19H102.71V29.8333H113.543ZM108.088 34.455H89.9065V47.6367H108.09V34.4533L108.088 34.455ZM97.8615 42.1817H92.1815V45.365H97.8648V42.1817H97.8615Z" fill="#34A853"/>
<path d="M113.5 29H103.5V19L113.5 29Z" fill="#188038"/>
<g clip-path="url(#clip0_2994_1291)">
<path d="M36.8549 22.422L21.9488 28.59C21.1199 28.933 21.1285 30.1103 21.9627 30.4411L36.931 36.3769C38.2461 36.8985 39.7108 36.8985 41.026 36.3769L55.9946 30.4409C56.8285 30.1105 56.8372 28.9331 56.008 28.59L41.1022 22.4219C39.7423 21.8592 38.2148 21.8594 36.8549 22.422Z" fill="#FFBF00"/>
<path d="M40.3048 39.6183V54.4467C40.3048 55.152 41.0158 55.635 41.6714 55.3752L58.3508 48.901C58.5368 48.8272 58.6963 48.6993 58.8088 48.5338C58.9212 48.3682 58.9813 48.1728 58.9813 47.9727V33.1441C58.9813 32.4388 58.2702 31.956 57.6145 32.2158L40.9352 38.6899C40.7491 38.7636 40.5896 38.8916 40.4771 39.0571C40.3647 39.2227 40.3046 39.4182 40.3047 39.6183" fill="#26B5F8"/>
<path d="M36.4098 40.3834L31.4598 42.7734L30.9572 43.0163L20.5078 48.0231C19.8455 48.3426 19 47.8599 19 47.1242V33.2062C19 32.9399 19.1366 32.7101 19.3197 32.537C19.3948 32.4624 19.4798 32.3986 19.5725 32.3474C19.8222 32.1976 20.1784 32.1576 20.4812 32.2774L36.3266 38.5556C37.132 38.8751 37.1953 40.0038 36.4098 40.3834Z" fill="#ED3049"/>
<path d="M36.4106 40.3835L31.4606 42.7735L19.3203 32.5372C19.3954 32.4626 19.4805 32.3988 19.5731 32.3477C19.8228 32.1978 20.1791 32.1578 20.4819 32.2777L36.3272 38.5558C37.1327 38.8753 37.1961 40.0039 36.4106 40.3835Z" fill="black" fill-opacity="0.25"/>
</g>
<path d="M100.086 116.422C93.3642 116.422 87.4609 113.832 83.0126 108.93C82.7842 108.679 82.6292 108.37 82.5645 108.037C82.4998 107.704 82.528 107.36 82.6459 107.042C83.8142 103.893 86.9692 96.5733 91.0142 96.55H91.0359C93.0676 96.55 94.5859 98.1583 95.8092 99.4517C96.1759 99.8383 96.7342 100.43 97.1126 100.72C98.0559 99.7883 99.9092 96.6933 101.349 93.59C101.562 93.1536 101.937 92.8181 102.395 92.6556C102.852 92.4931 103.355 92.5165 103.795 92.7208C104.236 92.9252 104.578 93.2941 104.749 93.7484C104.921 94.2026 104.907 94.7059 104.711 95.15C100.343 104.567 98.0126 104.567 97.2476 104.567C95.5442 104.567 94.3109 103.26 93.1159 101.997C92.5826 101.432 91.4692 100.255 91.0359 100.255C90.0909 100.413 88.0209 103.677 86.5409 107.262C90.1959 110.882 94.7459 112.715 100.086 112.715C107.411 112.715 112.891 110.722 115.253 107.223C114.436 97.915 109.311 85.285 100.086 85.285C92.2759 85.285 86.3926 90.725 82.5992 101.452C82.4243 101.9 82.082 102.262 81.6447 102.462C81.2074 102.663 80.7094 102.685 80.2559 102.525C79.8023 102.365 79.4288 102.035 79.2142 101.604C78.9996 101.174 78.9608 100.677 79.1059 100.218C83.4792 87.8467 90.5376 81.5767 100.086 81.5767C112.556 81.5767 118.303 97.5117 118.994 107.557C119.021 107.924 118.937 108.29 118.753 108.608C115.853 113.647 109.223 116.422 100.086 116.422Z" fill="#1D2D35"/>
<defs>
<linearGradient id="paint0_linear_2994_1291" x1="21.8369" y1="86.56" x2="36.2031" y2="111.44" gradientUnits="userSpaceOnUse">
<stop stop-color="#18884F"/>
<stop offset="0.5" stop-color="#117E43"/>
<stop offset="1" stop-color="#0B6631"/>
</linearGradient>
<clipPath id="clip0_2994_1291">
<rect width="40" height="33.5938" fill="white" transform="translate(19 22)"/>
</clipPath>
</defs>
</svg>
