<svg width="137" height="137" viewBox="0 0 137 137" fill="none" xmlns="http://www.w3.org/2000/svg">
<rect x="0.382812" y="0.852539" width="136" height="136" rx="6.79599" fill="#FAFAFA"/>
<path d="M26.4508 27.1473C27.6642 28.1324 28.1177 28.0573 30.397 27.9042L51.87 26.6157C52.3265 26.6157 51.948 26.1622 51.7949 26.0871L48.2271 23.5073C47.5454 22.9758 46.6354 22.3691 44.8905 22.5222L24.0964 24.0389C23.3395 24.114 23.1864 24.4924 23.4898 24.7958L26.4508 27.1473ZM27.7393 32.1508V54.7447C27.7393 55.958 28.3459 56.4144 29.7124 56.3393L53.3144 54.9729C54.678 54.8978 54.8311 54.0629 54.8311 53.0778V30.6342C54.8311 29.6519 54.4527 29.1175 53.6178 29.1926L28.9526 30.6342C28.0426 30.7093 27.7393 31.1657 27.7393 32.1508ZM51.038 33.3641C51.1882 34.0459 51.038 34.7277 50.3534 34.8057L49.2151 35.031V51.7142C48.23 52.2429 47.3172 52.5462 46.5574 52.5462C45.3441 52.5462 45.0407 52.1678 44.1307 51.0296L36.6919 39.3528V50.6511L39.0463 51.1827C39.0463 51.1827 39.0463 52.5462 37.1483 52.5462L31.9137 52.8496C31.7606 52.5462 31.9137 51.7894 32.4453 51.6362L33.8088 51.2607V36.3195L31.9166 36.1692C31.7635 35.4875 32.1419 34.5024 33.205 34.4244L38.821 34.0488L46.5632 45.8758V35.4124L44.5901 35.1841C44.4369 34.3492 45.0436 33.7426 45.8034 33.6675L51.038 33.3641ZM22.3515 21.9907L43.9805 20.3989C46.6354 20.1678 47.32 20.3238 48.9869 21.5371L55.8913 26.3904C57.0324 27.2224 57.4109 27.4506 57.4109 28.3606V54.9729C57.4109 56.6427 56.8042 57.6306 54.678 57.778L29.5622 59.2946C27.9675 59.3726 27.2077 59.1444 26.3728 58.0813L21.2884 51.486C20.3784 50.2727 20 49.3627 20 48.2996V24.6426C20 23.2791 20.6067 22.1409 22.3515 21.9907Z" fill="#C2C2C2"/>
<g clip-path="url(#clip0_2862_34535)">
<path d="M109.646 33.4322V28.6185C110.849 28.0168 111.852 26.8134 111.852 25.4094V25.2088C111.852 23.2031 110.247 21.5986 108.242 21.5986H108.041C106.035 21.5986 104.431 23.2031 104.431 25.2088V25.4094C104.431 26.8134 105.233 28.0168 106.637 28.6185V33.4322C104.832 33.6328 103.027 34.4351 101.623 35.6385L88.3852 25.4094C88.9869 23.2031 87.5829 20.7963 85.3767 20.3951C83.1704 19.994 80.9641 20.9969 80.3624 23.2031C79.7607 25.4094 81.1647 27.8162 83.371 28.4179C84.3738 28.6185 85.5772 28.6185 86.5801 28.0168L99.4166 38.0453C97.0097 41.6556 97.0097 46.2687 99.6171 49.8789L95.6057 53.8904C95.2046 53.8904 95.004 53.6898 94.6029 53.6898C92.7978 53.6898 91.1932 55.2943 91.1932 57.0995C91.1932 58.9046 92.7978 60.3086 94.6029 60.3086C96.408 60.3086 98.0126 58.704 98.0126 56.8989C98.0126 56.4978 98.0126 56.2972 97.812 55.896L101.623 52.0852C106.236 55.4949 112.855 54.6926 116.264 50.0795C119.674 45.4664 118.872 38.8476 114.259 35.4379C113.055 34.4351 111.451 33.6328 109.646 33.4322ZM108.041 49.0767C105.033 49.0767 102.626 46.6698 102.626 43.6613C102.626 40.6527 105.033 38.2459 108.041 38.2459C111.05 38.2459 113.456 40.6527 113.456 43.6613C113.456 46.6698 111.05 49.0767 108.041 49.0767Z" fill="#C2C2C2"/>
</g>
<g clip-path="url(#clip1_2862_34535)">
<path d="M82.332 111.04L88.482 106.327C91.7504 110.594 95.222 112.559 99.087 112.559C102.932 112.559 106.304 110.615 109.425 106.385L115.665 110.984C111.162 117.084 105.567 120.309 99.087 120.309C92.6287 120.309 86.9787 117.105 82.332 111.04ZM99.0654 90.5586L88.1187 99.9919L83.0587 94.1253L99.0904 80.3086L114.995 94.1353L109.912 99.9836L99.0654 90.5586Z" fill="#C2C2C2"/>
</g>
<path d="M54 80H24C22.6739 80 21.4021 80.5268 20.4645 81.4645C19.5268 82.4021 19 83.6739 19 85V115C19 116.326 19.5268 117.598 20.4645 118.536C21.4021 119.473 22.6739 120 24 120H54C55.3261 120 56.5979 119.473 57.5355 118.536C58.4732 117.598 59 116.326 59 115V85C59 83.6739 58.4732 82.4021 57.5355 81.4645C56.5979 80.5268 55.3261 80 54 80ZM36.4 110.4C36.4 111.037 36.1471 111.647 35.6971 112.097C35.247 112.547 34.6365 112.8 34 112.8H26.6C25.28 112.8 24.2 111.72 24.2 110.4V87.6C24.2 86.9635 24.4529 86.353 24.9029 85.9029C25.353 85.4529 25.9635 85.2 26.6 85.2H34C35.32 85.2 36.4 86.28 36.4 87.6V110.4ZM53.8 100.4C53.8 101.72 52.72 102.8 51.4 102.8H44C42.68 102.8 41.6 101.72 41.6 100.4V87.6C41.6 86.28 42.68 85.2 44 85.2H51.4C52.72 85.2 53.8 86.28 53.8 87.6V100.4Z" fill="#C2C2C2"/>
<defs>
<clipPath id="clip0_2862_34535">
<rect width="40" height="40" fill="white" transform="translate(79.2227 20.3086)"/>
</clipPath>
<clipPath id="clip1_2862_34535">
<rect width="40" height="40" fill="white" transform="translate(79 80.3086)"/>
</clipPath>
</defs>
</svg>
