<svg width="250" height="215" viewBox="0 0 250 215" fill="none" xmlns="http://www.w3.org/2000/svg">
<g clip-path="url(#clip0_2238_20949)">
<path d="M187.547 40.265C187.547 53.7006 178.599 64.5881 167.561 64.5881C156.524 64.5881 147.576 53.6954 147.576 40.265C147.576 26.8347 156.524 15.9368 167.561 15.9368C177.838 15.9368 186.307 25.3816 187.422 37.5302C187.505 38.428 187.547 39.3413 187.547 40.265Z" fill="#FFB9B9"/>
<path d="M249.13 176.479C246.628 178.969 231.547 181.673 213.182 184.112C180.053 188.518 136.23 192.078 136.23 192.078L123.265 102.783C123.265 102.783 126.506 90.9508 135.147 87.1832C143.777 83.4209 194.957 72.689 206.938 78.0186C206.954 78.0238 206.975 78.0342 206.991 78.0394C218.872 83.4209 256.149 169.483 249.124 176.479H249.13Z" fill="#3F3D56"/>
<path d="M108.871 27.1099L0 50.0318L35.0308 215L143.902 192.078L108.871 27.1099ZM11.8142 68.8073L105.218 49.1392L106.453 54.9566L13.0493 74.6299L11.8142 68.8125V68.8073ZM15.2381 81.4489L108.641 61.7808L109.877 67.5982L16.4784 87.2715L15.2433 81.4541L15.2381 81.4489ZM17.9375 94.0904L111.341 74.4223L112.576 80.2397L19.1726 99.9078L17.9375 94.0904ZM20.2097 106.732L113.613 87.0639L114.848 92.8813L21.4448 112.549L20.2097 106.732ZM22.6486 119.374L116.052 99.7055L117.287 105.523L23.8837 125.191L22.6434 119.374H22.6486ZM25.2335 132.015L118.637 112.347L119.872 118.164L26.4686 137.833L25.2335 132.015ZM34.5514 155.425L120.857 137.251L129.508 178.004L43.2023 196.178L34.5514 155.425Z" fill="#DEDEDE"/>
<path d="M187.422 37.5302C181.788 38.0439 163.241 25.6826 163.241 25.6826C160.542 29.9847 147.576 40.265 147.576 40.265C147.576 26.8295 156.524 15.9368 167.561 15.9368C177.838 15.9368 186.307 25.3816 187.422 37.5302Z" fill="#393939"/>
<path d="M147.576 145.456C147.576 145.456 126.688 141.87 123.27 139.716C119.846 137.563 97.5204 122.861 98.5992 128.6C99.678 134.34 111.565 137.926 111.565 140.432C111.565 140.432 107.964 148.32 94.279 145.451C80.5939 142.581 73.7514 138.995 74.8301 142.581C75.9089 146.167 100.038 156.566 113.003 152.981C125.969 149.395 121.644 150.111 121.644 150.111L147.57 159.794V145.451L147.576 145.456Z" fill="#FFB9B9"/>
<path d="M81.3287 182.291C89.8806 182.291 96.8117 175.389 96.8117 166.873C96.8117 158.357 89.8806 151.455 81.3287 151.455C72.7768 151.455 65.8457 158.357 65.8457 166.873C65.8457 175.389 72.7768 182.291 81.3287 182.291Z" fill="#49B348"/>
<path d="M249.13 176.479C246.628 178.969 231.547 181.673 213.182 184.112L140.551 162.493L144.334 138.824L211.316 145.819L196.193 115.16L204.833 83.9605L206.944 78.0186C206.944 78.0186 206.98 78.0341 206.996 78.0393C218.878 83.4208 256.155 169.483 249.13 176.479Z" fill="#3F3D56"/>
<path d="M192.638 43.7162C194.306 39.0456 193.378 34.453 190.569 33.4618C187.761 32.4706 184.128 35.4442 182.461 40.1147C180.793 44.7852 181.721 49.3779 184.529 50.3691C187.338 51.3655 190.971 48.3867 192.638 43.7162Z" fill="#FFB9B9"/>
<path d="M169.724 87.1831C166.144 87.1831 163.241 84.2925 163.241 80.7274V52.7561H176.207V80.7274C176.207 84.2925 173.304 87.1831 169.724 87.1831Z" fill="#FFB9B9"/>
<path d="M193.566 17.5922C196.151 10.3477 193.316 2.72958 187.229 0.570761C181.142 -1.58287 174.112 2.53757 171.522 9.78208C168.937 17.0266 171.772 24.6447 177.859 26.8036C183.946 28.9572 190.976 24.8368 193.566 17.5922Z" fill="#393939"/>
<path d="M83.0068 177.994L71.5834 171.082L73.5325 167.89L81.0681 172.457L87.1133 156.286L90.631 157.589L83.0016 177.999L83.0068 177.994Z" fill="white"/>
<path d="M196.193 115.155L211.316 145.814L144.334 138.819L143.396 144.698" stroke="white" stroke-miterlimit="10" stroke-linecap="round"/>
<path d="M140.551 162.493L213.182 184.112" stroke="white" stroke-miterlimit="10" stroke-linecap="round"/>
<path d="M154.255 36.899C155.355 35.9199 158.264 34.4377 161.106 36.3419" stroke="#393939" stroke-linecap="round"/>
<path d="M169.783 36.2408C170.764 35.4642 173.497 34.5189 176.583 36.9498" stroke="#393939" stroke-linecap="round"/>
<path d="M158.424 41.1872C158.424 41.6288 158.084 41.9533 157.706 41.9533C157.328 41.9533 156.988 41.6288 156.988 41.1872C156.988 40.7457 157.328 40.4211 157.706 40.4211C158.084 40.4211 158.424 40.7457 158.424 41.1872Z" fill="#393939" stroke="#393939"/>
<path d="M173.85 41.1872C173.85 41.6288 173.51 41.9533 173.132 41.9533C172.754 41.9533 172.414 41.6288 172.414 41.1872C172.414 40.7457 172.754 40.4211 173.132 40.4211C173.51 40.4211 173.85 40.7457 173.85 41.1872Z" fill="#393939" stroke="#393939"/>
<path d="M165.673 43.9387V47.2306" stroke="#393939" stroke-linecap="round"/>
<path d="M160.598 53.6287C162.205 54.9285 166.363 56.7483 170.138 53.6287" stroke="#393939" stroke-linecap="round"/>
</g>
<defs>
<clipPath id="clip0_2238_20949">
<rect width="250" height="215" fill="white"/>
</clipPath>
</defs>
</svg>
