<svg width="136" height="136" viewBox="0 0 136 136" fill="none" xmlns="http://www.w3.org/2000/svg">
<rect width="136" height="136" rx="6.79599" transform="matrix(-1 0 0 1 136 0)" fill="#FAFAFA"/>
<g clip-path="url(#clip0_2994_1305)">
<path d="M87.3823 34.2284C89.3189 34.2284 90.2317 34.5848 91.6338 35.9894L99.1577 43.5235C99.3807 43.7464 99.4253 43.8357 99.4693 43.9692C99.4921 44.0138 99.4921 44.0806 99.4921 44.1254C99.4921 44.1702 99.4921 44.2368 99.4693 44.2816C99.4253 44.4151 99.3805 44.5045 99.1577 44.7273L94.0161 49.8983C93.7932 50.1213 93.7045 50.1659 93.5704 50.2106C93.5264 50.2327 93.4596 50.2327 93.4148 50.2327C93.37 50.2327 93.3034 50.2327 93.2586 50.2106C93.1252 50.1659 93.0363 50.1211 92.8136 49.8983L78.2326 35.2981C77.8101 34.8743 77.9657 34.2284 78.6783 34.2284H87.3821H87.3823ZM108.618 25.0221C106.682 25.0221 105.769 25.3785 104.367 26.7832L96.8426 34.3172C96.6197 34.5401 96.5751 34.6294 96.5311 34.7629C96.5083 34.8075 96.5083 34.8743 96.5083 34.9191C96.5083 34.9639 96.5083 35.0305 96.5311 35.0753C96.5751 35.2088 96.6199 35.2982 96.8426 35.521L101.984 40.67C102.207 40.8929 102.296 40.9376 102.43 40.9822C102.474 41.0043 102.541 41.0043 102.586 41.0043C102.63 41.0043 102.697 41.0043 102.742 40.9822C102.875 40.9376 102.964 40.8927 103.187 40.67L117.767 26.0697C118.19 25.6459 118.035 25 117.322 25H108.618V25.0221H108.618Z" fill="#08CF65"/>
</g>
<path d="M49.3008 98.5734C44.4963 98.5734 40.6016 102.468 40.6016 107.273C40.6016 112.078 44.4963 115.972 49.3008 115.972C54.1053 115.972 58 112.077 58 107.273C58 102.468 54.1053 98.5734 49.3008 98.5734ZM26.6992 98.5742C21.8948 98.5742 18 102.468 18 107.273C18 112.078 21.8948 115.972 26.6992 115.972C31.5039 115.972 35.3989 112.077 35.3989 107.273C35.3989 102.468 31.5039 98.5742 26.6992 98.5742ZM46.6992 87.6992C46.6992 92.5039 42.8044 96.3992 38.0002 96.3992C33.1955 96.3992 29.3008 92.5039 29.3008 87.6992C29.3008 82.895 33.1953 79 38 79C42.8042 79 46.6992 82.8955 46.6992 87.6992Z" fill="#F06A6A"/>
<rect x="78" y="76" width="40" height="40" rx="10.6667" fill="#F11F24"/>
<rect x="79.6016" y="96" width="26.0215" height="26.0215" rx="2.66667" transform="rotate(-45 79.6016 96)" fill="#78FFC7"/>
<circle cx="97.9995" cy="96" r="9.86667" fill="#7D4CCF"/>
<path d="M57.4437 25.1047H34.6758V53.2927H57.4437V25.1047Z" fill="white"/>
<path d="M33.3153 23.7869C32.4208 23.7869 31.6992 24.4923 31.6992 25.3672V52.0191C31.6992 52.8932 32.42 53.5994 33.3153 53.5994H56.3823C57.2768 53.5994 57.9984 52.894 57.9984 52.0191V25.3663C57.9984 24.4923 57.2777 23.786 56.3823 23.786H33.3153V23.7869ZM32.9916 25.0963H56.6924V52.2747H32.9916V25.0954V25.0963Z" fill="#30742E"/>
<path d="M39.0352 43.8141L43.8205 48.5994C44.0275 48.8064 44.3632 48.8064 44.5702 48.5994L49.3555 43.8141L44.5702 39.0288C44.3632 38.8218 44.0275 38.8218 43.8205 39.0288L39.0352 43.8141Z" fill="#30742E"/>
<path d="M49.4057 30.46V36.5215H46.5645C46.4001 36.5215 46.2434 36.732 46.418 36.9237L50.5124 41.0453L54.5421 36.9143C54.6681 36.7848 54.6051 36.5215 54.3862 36.5215H51.4981V28.9845C51.4657 28.7272 51.263 28.5244 51.0057 28.4921H39.9297V30.4609H49.4066L49.4057 30.46Z" fill="#30742E"/>
<path d="M40.7688 57.7824V20L18 23.7775V54.0032L40.7688 57.7824Z" fill="url(#paint0_linear_2994_1305)"/>
<path d="M25.5868 45.0273V32.3675L29.9691 32.1239C31.3876 32.0779 32.0487 32.5592 32.703 33.4946C33.2738 34.3125 33.4442 35.4899 33.3556 36.5198C33.1664 38.6948 31.8212 40.5733 29.7979 40.6756H27.9518V38.337H29.1828C30.0646 38.2978 30.7265 37.336 30.6839 36.3375C30.6456 35.2113 30.0535 34.5425 29.2518 34.5144L27.9518 34.5221L27.9535 45.1687L25.5859 45.0273H25.5868Z" fill="white"/>
<defs>
<linearGradient id="paint0_linear_2994_1305" x1="40.7475" y1="38.8414" x2="17.9872" y2="38.8414" gradientUnits="userSpaceOnUse">
<stop stop-color="#2E6E2C"/>
<stop offset="1" stop-color="#327A30"/>
</linearGradient>
<clipPath id="clip0_2994_1305">
<rect width="40" height="25.2325" fill="white" transform="translate(78 25)"/>
</clipPath>
</defs>
</svg>
