<svg width="137" height="136" viewBox="0 0 137 136" fill="none" xmlns="http://www.w3.org/2000/svg">
<rect x="0.492188" width="136" height="136" rx="6.79599" fill="#FAFAFA"/>
<path d="M22.8352 57.7113C21.9791 57.7021 21.1408 57.4656 20.4061 57.0261C19.6714 56.5865 19.0666 55.9596 18.6538 55.2096C18.2467 54.4627 18.0488 53.6196 18.0811 52.7696C18.1134 51.9195 18.3747 51.0939 18.8373 50.38L27.6532 36.7667C28.1018 36.0369 28.7364 35.4395 29.4919 35.0356C30.2474 34.6318 31.0967 34.436 31.9527 34.4685C32.8088 34.5009 33.6408 34.7604 34.3636 35.2202C35.0864 35.6801 35.6739 36.3238 36.066 37.0855C36.4547 37.8433 36.6311 38.6921 36.5765 39.542C36.5219 40.3919 36.2384 41.2112 35.7559 41.913L26.9493 55.5172C26.5043 56.2003 25.8937 56.7597 25.1744 57.1433C24.455 57.5269 23.6503 57.7223 22.8352 57.7113Z" fill="#C2C2C2"/>
<path d="M37.6288 57.57C36.7723 57.5522 35.936 57.3063 35.2062 56.8576C34.4764 56.4088 33.8795 55.7736 33.4771 55.0172C33.0788 54.2656 32.8908 53.4203 32.933 52.5706C32.9753 51.721 33.2462 50.8985 33.7172 50.1901L42.6872 36.6878C43.1385 35.9509 43.7792 35.3484 44.5425 34.9433C45.3058 34.5382 46.1638 34.3452 47.0271 34.3844C47.8904 34.4236 48.7273 34.6936 49.4508 35.1663C50.1742 35.639 50.7576 36.297 51.1403 37.0718C51.5184 37.8434 51.6792 38.7033 51.6055 39.5593C51.5319 40.4154 51.2265 41.2352 50.7221 41.9307L41.7521 55.4308C41.3011 56.1062 40.6866 56.6566 39.9656 57.0307C39.2447 57.4047 38.4408 57.5902 37.6288 57.57Z" fill="#C2C2C2"/>
<path d="M53.1803 57.6153C55.8413 57.6 57.9864 55.5025 57.9716 52.9305C57.9568 50.3585 55.7876 48.2859 53.1267 48.3012C50.4657 48.3166 48.3206 50.414 48.3354 52.986C48.3502 55.558 50.5194 57.6306 53.1803 57.6153Z" fill="#C2C2C2"/>
<path d="M82.8352 57.7113C81.9791 57.7021 81.1408 57.4656 80.4061 57.0261C79.6714 56.5865 79.0666 55.9596 78.6538 55.2096C78.2467 54.4627 78.0488 53.6196 78.0811 52.7696C78.1134 51.9195 78.3747 51.0939 78.8373 50.38L87.6532 36.7667C88.1018 36.0369 88.7364 35.4395 89.4919 35.0356C90.2474 34.6318 91.0967 34.436 91.9527 34.4685C92.8088 34.5009 93.6408 34.7604 94.3636 35.2202C95.0864 35.6801 95.6739 36.3238 96.066 37.0855C96.4547 37.8433 96.6311 38.6921 96.5765 39.542C96.5219 40.3919 96.2384 41.2112 95.7559 41.913L86.9493 55.5172C86.5043 56.2003 85.8937 56.7597 85.1744 57.1433C84.455 57.5269 83.6503 57.7223 82.8352 57.7113Z" fill="#C2C2C2"/>
<path d="M97.6288 57.57C96.7723 57.5522 95.936 57.3063 95.2062 56.8576C94.4764 56.4088 93.8795 55.7736 93.4771 55.0172C93.0788 54.2656 92.8908 53.4203 92.933 52.5706C92.9753 51.721 93.2462 50.8985 93.7172 50.1901L102.687 36.6878C103.139 35.9509 103.779 35.3484 104.543 34.9433C105.306 34.5382 106.164 34.3452 107.027 34.3844C107.89 34.4236 108.727 34.6936 109.451 35.1663C110.174 35.639 110.758 36.297 111.14 37.0718C111.518 37.8434 111.679 38.7033 111.606 39.5593C111.532 40.4154 111.226 41.2352 110.722 41.9307L101.752 55.4308C101.301 56.1062 100.687 56.6566 99.9656 57.0307C99.2447 57.4047 98.4408 57.5902 97.6288 57.57Z" fill="#C2C2C2"/>
<path d="M113.18 57.6153C115.841 57.6 117.986 55.5025 117.972 52.9305C117.957 50.3585 115.788 48.2859 113.127 48.3012C110.466 48.3166 108.321 50.414 108.335 52.986C108.35 55.558 110.519 57.6306 113.18 57.6153Z" fill="#C2C2C2"/>
<path d="M22.8352 101.711C21.9791 101.702 21.1408 101.466 20.4061 101.026C19.6714 100.587 19.0666 99.9596 18.6538 99.2096C18.2467 98.4627 18.0488 97.6196 18.0811 96.7696C18.1134 95.9195 18.3747 95.0939 18.8373 94.38L27.6532 80.7667C28.1018 80.0369 28.7364 79.4395 29.4919 79.0356C30.2474 78.6318 31.0967 78.436 31.9527 78.4685C32.8088 78.5009 33.6408 78.7604 34.3636 79.2202C35.0864 79.6801 35.6739 80.3238 36.066 81.0855C36.4547 81.8433 36.6311 82.6921 36.5765 83.542C36.5219 84.3919 36.2384 85.2112 35.7559 85.913L26.9493 99.5172C26.5043 100.2 25.8937 100.76 25.1744 101.143C24.455 101.527 23.6503 101.722 22.8352 101.711Z" fill="#C2C2C2"/>
<path d="M37.6288 101.57C36.7723 101.552 35.936 101.306 35.2062 100.858C34.4764 100.409 33.8795 99.7736 33.4771 99.0172C33.0788 98.2656 32.8908 97.4203 32.933 96.5706C32.9753 95.721 33.2462 94.8985 33.7172 94.1901L42.6872 80.6878C43.1385 79.9509 43.7792 79.3484 44.5425 78.9433C45.3058 78.5382 46.1638 78.3452 47.0271 78.3844C47.8904 78.4236 48.7273 78.6936 49.4508 79.1663C50.1742 79.639 50.7576 80.297 51.1403 81.0718C51.5184 81.8434 51.6792 82.7033 51.6055 83.5593C51.5319 84.4154 51.2265 85.2352 50.7221 85.9307L41.7521 99.4308C41.3011 100.106 40.6866 100.657 39.9656 101.031C39.2447 101.405 38.4408 101.59 37.6288 101.57Z" fill="#C2C2C2"/>
<path d="M53.1803 101.615C55.8413 101.6 57.9864 99.5025 57.9716 96.9305C57.9568 94.3585 55.7876 92.2859 53.1267 92.3012C50.4657 92.3166 48.3206 94.414 48.3354 96.986C48.3502 99.558 50.5194 101.631 53.1803 101.615Z" fill="#C2C2C2"/>
<path d="M82.8352 101.711C81.9791 101.702 81.1408 101.466 80.4061 101.026C79.6714 100.587 79.0666 99.9596 78.6538 99.2096C78.2467 98.4627 78.0488 97.6196 78.0811 96.7696C78.1134 95.9195 78.3747 95.0939 78.8373 94.38L87.6532 80.7667C88.1018 80.0369 88.7364 79.4395 89.4919 79.0356C90.2474 78.6318 91.0967 78.436 91.9527 78.4685C92.8088 78.5009 93.6408 78.7604 94.3636 79.2202C95.0864 79.6801 95.6739 80.3238 96.066 81.0855C96.4547 81.8433 96.6311 82.6921 96.5765 83.542C96.5219 84.3919 96.2384 85.2112 95.7559 85.913L86.9493 99.5172C86.5043 100.2 85.8937 100.76 85.1744 101.143C84.455 101.527 83.6503 101.722 82.8352 101.711Z" fill="#C2C2C2"/>
<path d="M97.6288 101.57C96.7723 101.552 95.936 101.306 95.2062 100.858C94.4764 100.409 93.8795 99.7736 93.4771 99.0172C93.0788 98.2656 92.8908 97.4203 92.933 96.5706C92.9753 95.721 93.2462 94.8985 93.7172 94.1901L102.687 80.6878C103.139 79.9509 103.779 79.3484 104.543 78.9433C105.306 78.5382 106.164 78.3452 107.027 78.3844C107.89 78.4236 108.727 78.6936 109.451 79.1663C110.174 79.639 110.758 80.297 111.14 81.0718C111.518 81.8434 111.679 82.7033 111.606 83.5593C111.532 84.4154 111.226 85.2352 110.722 85.9307L101.752 99.4308C101.301 100.106 100.687 100.657 99.9656 101.031C99.2447 101.405 98.4408 101.59 97.6288 101.57Z" fill="#C2C2C2"/>
<path d="M113.18 101.615C115.841 101.6 117.986 99.5025 117.972 96.9305C117.957 94.3585 115.788 92.2859 113.127 92.3012C110.466 92.3166 108.321 94.414 108.335 96.986C108.35 99.558 110.519 101.631 113.18 101.615Z" fill="#C2C2C2"/>
</svg>
