<svg width="137" height="137" viewBox="0 0 137 137" fill="none" xmlns="http://www.w3.org/2000/svg">
<rect x="0.382812" y="0.451172" width="136" height="136" rx="6.79599" fill="#FAFAFA"/>
<g clip-path="url(#clip0_2862_34544)">
<path d="M38.9867 22.2766C38.2633 22.2766 37.5367 22.4199 36.8533 22.7049L21.965 28.8616C21.1267 29.2083 21.1483 30.3749 21.985 30.7216L36.955 36.6516C38.2666 37.1826 39.7334 37.1826 41.045 36.6516L56.015 30.7216C56.8533 30.3949 56.8533 29.2083 56.035 28.8616L41.1067 22.7049C40.4353 22.4233 39.7147 22.2777 38.9867 22.2766ZM58 32.4266C57.873 32.4279 57.7475 32.4533 57.63 32.5016L40.9433 38.9633C40.7564 39.0394 40.5963 39.1694 40.4835 39.3368C40.3707 39.5042 40.3103 39.7014 40.31 39.9033V54.7299C40.3116 54.8923 40.3526 55.0518 40.4296 55.1947C40.5066 55.3376 40.6173 55.4596 40.752 55.5501C40.8867 55.6407 41.0414 55.6971 41.2028 55.7145C41.3642 55.7319 41.5274 55.7097 41.6783 55.6499L58.3667 49.1666C58.5542 49.0977 58.7158 48.9725 58.8292 48.808C58.9426 48.6436 59.0023 48.448 59 48.2483V33.4216C58.9982 33.1576 58.8921 32.9049 58.7048 32.7188C58.5174 32.5327 58.2641 32.4283 58 32.4283V32.4266ZM20.1267 32.4916C19.9786 32.486 19.8311 32.5112 19.6933 32.5657C19.5556 32.6202 19.4307 32.7028 19.3267 32.8083C19.1433 32.9933 19 33.2166 19 33.4833V47.4083C19 48.1449 19.8583 48.6366 20.5133 48.3083L30.9633 43.2983L31.475 43.0533L36.4233 40.6599C37.2 40.2933 37.14 39.1466 36.3217 38.8399L20.4717 32.5633C20.3619 32.5186 20.2451 32.4938 20.1267 32.4899V32.4916Z" fill="#C2C2C2"/>
</g>
<path d="M97.8615 39.9083H92.1815V36.7267H97.8648V39.91L97.8615 39.9083ZM103.545 19V29H113.545L103.545 19ZM105.816 36.7267H100.133V39.91H105.816V36.7267ZM105.816 42.1817H100.133V45.365H105.816V42.1817ZM113.543 29.8333V56.2733C113.543 57.78 112.323 59 110.816 59H87.1798C86.8217 59 86.4672 58.9295 86.1363 58.7924C85.8055 58.6554 85.5049 58.4546 85.2517 58.2014C84.7404 57.69 84.4531 56.9965 84.4531 56.2733V21.7267C84.4531 20.22 85.6731 19 87.1798 19H102.71V29.8333H113.543ZM108.088 34.455H89.9065V47.6367H108.09V34.4533L108.088 34.455ZM97.8615 42.1817H92.1815V45.365H97.8648V42.1817H97.8615Z" fill="#C2C2C2"/>
<path d="M100.086 116.422C93.3642 116.422 87.4609 113.832 83.0126 108.93C82.7842 108.679 82.6292 108.37 82.5645 108.037C82.4998 107.704 82.528 107.36 82.6459 107.042C83.8142 103.893 86.9692 96.5733 91.0142 96.55H91.0359C93.0676 96.55 94.5859 98.1583 95.8092 99.4517C96.1759 99.8383 96.7342 100.43 97.1126 100.72C98.0559 99.7883 99.9092 96.6933 101.349 93.59C101.562 93.1536 101.937 92.8181 102.395 92.6556C102.852 92.4931 103.355 92.5165 103.795 92.7208C104.236 92.9252 104.578 93.2941 104.749 93.7484C104.921 94.2026 104.907 94.7059 104.711 95.15C100.343 104.567 98.0126 104.567 97.2476 104.567C95.5442 104.567 94.3109 103.26 93.1159 101.997C92.5826 101.432 91.4692 100.255 91.0359 100.255C90.0909 100.413 88.0209 103.677 86.5409 107.262C90.1959 110.882 94.7459 112.715 100.086 112.715C107.411 112.715 112.891 110.722 115.253 107.223C114.436 97.915 109.311 85.285 100.086 85.285C92.2759 85.285 86.3926 90.725 82.5992 101.452C82.4243 101.9 82.082 102.262 81.6447 102.462C81.2074 102.663 80.7094 102.685 80.2559 102.525C79.8023 102.365 79.4288 102.035 79.2142 101.604C78.9996 101.174 78.9608 100.677 79.1059 100.218C83.4792 87.8467 90.5376 81.5767 100.086 81.5767C112.556 81.5767 118.303 97.5117 118.994 107.557C119.021 107.924 118.937 108.29 118.753 108.608C115.853 113.647 109.223 116.422 100.086 116.422Z" fill="#C2C2C2"/>
<path d="M59.8171 79C60.32 79 60.7695 79.1905 61.1657 79.5714C61.5314 79.9371 61.7143 80.379 61.7143 80.8971V117.103C61.7143 117.621 61.5314 118.063 61.1657 118.429C60.7695 118.81 60.32 119 59.8171 119H29.3257C28.8229 119 28.3733 118.81 27.9771 118.429C27.6114 118.063 27.4286 117.621 27.4286 117.103V110.429H17.8971C17.3943 110.429 16.9448 110.246 16.5486 109.88C16.1829 109.484 16 109.034 16 108.531V89.4686C16 88.9657 16.1829 88.5162 16.5486 88.12C16.9448 87.7543 17.3943 87.5714 17.8971 87.5714H27.4286V80.8971C27.4286 80.379 27.6114 79.9371 27.9771 79.5714C28.3733 79.1905 28.8229 79 29.3257 79M27.4286 101.423L30.1257 106.497H34.2171L29.7143 99.1371L34.1257 91.8914H30.2171L27.7257 96.4857L27.6343 96.6229L27.5657 96.7829C27.1695 95.9752 26.7429 95.16 26.2857 94.3371C25.9048 93.5295 25.501 92.7143 25.0743 91.8914H20.9371L25.2571 99.1829L20.5714 106.497H24.64M43.1543 116.143V110.429H30.2857V116.143M43.1543 107.571V100.44H38.8571V107.571M43.1543 97.5829V90.4286H38.8571V97.5829M43.1543 87.5714V81.8571H30.2857V87.5714M58.8571 116.143V110.429H46.0114V116.143M58.8571 107.571V100.44H46.0114V107.571M58.8571 97.5829V90.4286H46.0114V97.5829M58.8571 87.5714V81.8571H46.0114V87.5714H58.8571Z" fill="#C2C2C2"/>
<defs>
<clipPath id="clip0_2862_34544">
<rect width="40" height="40" fill="white" transform="translate(19 19)"/>
</clipPath>
</defs>
</svg>
