<svg width="184" height="195" viewBox="0 0 184 195" fill="none" xmlns="http://www.w3.org/2000/svg">
<mask id="path-1-inside-1_2238_20354" fill="white">
<path fill-rule="evenodd" clip-rule="evenodd" d="M184 10.7588C184 5.23594 179.523 0.758789 174 0.758789H10C4.47715 0.758789 0 5.23596 0 10.7588V137.387C0 140.96 1.90656 144.262 5.00131 146.048L87.4982 193.661C90.6069 195.455 94.4387 195.445 97.5385 193.636L179.041 146.056C182.112 144.263 184 140.975 184 137.42V10.7588Z"/>
</mask>
<path d="M179.041 146.056L180.05 147.783L179.041 146.056ZM87.4982 193.661L86.4985 195.393L87.4982 193.661ZM97.5385 193.636L96.5302 191.909L97.5385 193.636ZM5.00131 146.048L4.00157 147.78L5.00131 146.048ZM10 2.75879H174V-1.24121H10V2.75879ZM2 137.387V10.7588H-2V137.387H2ZM88.4979 191.929L6.00104 144.316L4.00157 147.78L86.4985 195.393L88.4979 191.929ZM178.033 144.329L96.5302 191.909L98.5468 195.363L180.05 147.783L178.033 144.329ZM182 10.7588V137.42H186V10.7588H182ZM180.05 147.783C183.734 145.632 186 141.686 186 137.42H182C182 140.264 180.49 142.895 178.033 144.329L180.05 147.783ZM86.4985 195.393C90.2289 197.546 94.8271 197.535 98.5468 195.363L96.5302 191.909C94.0504 193.356 90.9849 193.364 88.4979 191.929L86.4985 195.393ZM-2 137.387C-2 141.675 0.287868 145.637 4.00157 147.78L6.00104 144.316C3.52525 142.887 2 140.245 2 137.387H-2ZM174 2.75879C178.418 2.75879 182 6.34051 182 10.7588H186C186 4.13138 180.627 -1.24121 174 -1.24121V2.75879ZM10 -1.24121C3.37258 -1.24121 -2 4.13139 -2 10.7588H2C2 6.34052 5.58173 2.75879 10 2.75879V-1.24121Z" fill="#49B348" mask="url(#path-1-inside-1_2238_20354)"/>
</svg>
